<svg width="32" height="32" viewBox="0 0 54 54" fill="none" xmlns="http://www.w3.org/2000/svg" role="img" aria-label="모헤어">
<title>모헤어</title>
<rect width="54" height="54" rx="18" fill="url(#mhFaviconBg)"/>
<path d="M9.21187 37.04C8.70521 37.04 8.45187 36.64 8.45187 35.84V35.32C8.45187 35.16 8.47854 35 8.53187 34.84C8.58521 34.7067 8.70521 34.56 8.89187 34.4C9.21187 34.1067 9.53187 33.8133 9.85187 33.52C10.1719 33.2267 10.4785 32.92 10.7719 32.6C10.8252 32.5467 10.8785 32.52 10.9319 32.52C10.9852 32.4933 11.0252 32.4667 11.0519 32.44C11.1052 32.3867 11.1852 32.2667 11.2919 32.08C11.3985 31.8933 11.5185 31.7467 11.6519 31.64C11.7852 31.5333 11.9052 31.4533 12.0119 31.4C12.1185 31.32 12.1852 31.1867 12.2119 31C12.5052 30.6533 12.7985 30.3067 13.0919 29.96C13.3852 29.5867 13.6652 29.2133 13.9319 28.84C14.1452 28.7333 14.3585 28.4533 14.5719 28C14.7852 27.5467 14.9852 27.2133 15.1719 27C15.3052 27 15.3852 26.92 15.4119 26.76C15.4385 26.6 15.4785 26.4667 15.5319 26.36C15.9052 25.72 16.2519 25.0933 16.5719 24.48C16.8919 23.8667 17.1452 23.2133 17.3319 22.52C17.3852 22.3867 17.4385 22.28 17.4919 22.2C17.5719 22.0933 17.6252 21.9867 17.6519 21.88V21.72C17.6519 21.6133 17.6252 21.5067 17.5719 21.4C17.5452 21.2667 17.5452 21.1333 17.5719 21C17.5985 20.8667 17.6252 20.6667 17.6519 20.4C17.6785 20.1067 17.7185 19.92 17.7719 19.84C17.8519 19.7067 17.9185 19.6667 17.9719 19.72C18.0519 19.7733 18.1052 19.76 18.1319 19.68C18.1585 19.6267 18.1719 19.5467 18.1719 19.44C18.1985 19.3067 18.2119 19.2133 18.2119 19.16C18.2119 19.1333 18.1985 19.12 18.1719 19.12C18.1452 19.12 18.0652 19.1733 17.9319 19.28C17.8252 19.36 17.7719 19.3733 17.7719 19.32L17.7319 18.92C17.6252 18.76 17.5452 18.6533 17.4919 18.6C17.4652 18.52 17.4652 18.3867 17.4919 18.2V18.08C17.4919 17.8667 17.3452 17.7867 17.0519 17.84C16.6519 17.6 16.3052 17.48 16.0119 17.48C15.7452 17.48 15.4919 17.5333 15.2519 17.64C15.0119 17.72 14.7719 17.76 14.5319 17.76C14.3185 17.76 14.2119 17.6667 14.2119 17.48C14.2119 17.32 14.3185 17.1867 14.5319 17.08C14.7719 16.9467 15.0252 16.8533 15.2919 16.8C15.5585 16.7467 15.7585 16.72 15.8919 16.72C16.2385 16.72 16.5985 16.7733 16.9719 16.88C17.3452 16.9867 17.6652 17.1467 17.9319 17.36C18.3852 17.7067 18.6919 18.1467 18.8519 18.68C19.0385 19.1867 19.1319 19.7067 19.1319 20.24C19.1319 20.72 19.0919 21.2 19.0119 21.68C18.9319 22.1333 18.8252 22.5733 18.6919 23C18.6385 23.2133 18.5585 23.4267 18.4519 23.64C18.3452 23.8533 18.2519 24.0667 18.1719 24.28C18.1452 24.36 18.1185 24.4667 18.0919 24.6C18.0652 24.7333 18.0519 24.8667 18.0519 25C18.0519 25.2133 18.1052 25.32 18.2119 25.32C18.2919 25.32 18.4252 25.2267 18.6119 25.04C19.5185 24.1333 20.4119 23.2267 21.2919 22.32C22.1985 21.4133 23.1319 20.5467 24.0919 19.72C24.3052 19.5333 24.5185 19.36 24.7319 19.2C24.9452 19.04 25.1452 18.8667 25.3319 18.68C25.3852 18.6 25.4652 18.52 25.5719 18.44C25.6785 18.36 25.7585 18.3067 25.8119 18.28C26.1319 18.0667 26.4252 17.8533 26.6919 17.64C26.9585 17.4 27.2385 17.1867 27.5319 17C27.9319 16.76 28.3319 16.5333 28.7319 16.32C29.1585 16.08 29.5852 15.88 30.0119 15.72H30.0519C30.1319 15.6933 30.1852 15.6933 30.2119 15.72C30.2652 15.7467 30.3185 15.76 30.3719 15.76C30.4519 15.7067 30.5052 15.6533 30.5319 15.6C30.5852 15.5467 30.6652 15.5067 30.7719 15.48C31.1452 15.4 31.5185 15.36 31.8919 15.36C32.4252 15.36 32.9319 15.44 33.4119 15.6C33.8919 15.76 34.2919 16.0267 34.6119 16.4C34.6652 16.5333 34.7052 16.6533 34.7319 16.76C34.7585 16.84 34.8519 16.9067 35.0119 16.96C35.1985 17.3067 35.3185 17.6667 35.3719 18.04C35.4519 18.3867 35.4919 18.7467 35.4919 19.12C35.4919 19.6267 35.4519 20.12 35.3719 20.6C35.3452 20.8133 35.2785 21.04 35.1719 21.28C35.0919 21.4933 35.0652 21.72 35.0919 21.96L35.0519 22.04C34.8919 22.2533 34.8385 22.4667 34.8919 22.68L34.8119 22.96C34.6519 23.04 34.5719 23.16 34.5719 23.32C34.5719 23.4533 34.5719 23.6 34.5719 23.76H34.5319C34.1852 24.8267 33.7719 25.8667 33.2919 26.88C32.8119 27.8667 32.3052 28.84 31.7719 29.8C31.7719 29.8267 31.7185 29.9467 31.6119 30.16C31.5052 30.3733 31.4119 30.5867 31.3319 30.8C31.2785 31.0133 31.3052 31.12 31.4119 31.12C31.5719 31.12 31.7319 31.04 31.8919 30.88C32.0519 30.6933 32.1852 30.5467 32.2919 30.44C32.5052 30.2267 32.6785 30 32.8119 29.76C32.9719 29.4933 33.1452 29.2667 33.3319 29.08C33.3852 29 33.4519 28.9333 33.5319 28.88C33.6119 28.8 33.6919 28.7333 33.7719 28.68C33.9052 28.5733 34.0119 28.44 34.0919 28.28C34.1719 28.12 34.2652 27.9867 34.3719 27.88L35.2519 26.88C35.4652 26.88 35.5985 26.8 35.6519 26.64C35.7052 26.48 35.7852 26.3333 35.8919 26.2C35.9985 26.04 36.2385 25.76 36.6119 25.36C36.9852 24.96 37.2652 24.6933 37.4519 24.56C37.7452 24.2933 38.0785 24.16 38.4519 24.16C39.0119 24.16 39.4785 24.4933 39.8519 25.16C39.9052 25.2667 39.9985 25.52 40.1319 25.92C40.2919 26.32 40.3719 26.56 40.3719 26.64C40.3719 26.72 40.3452 26.8133 40.2919 26.92C40.2652 27 40.2652 27.0667 40.2919 27.12C40.3452 27.1733 40.3852 27.1867 40.4119 27.16C40.4652 27.1333 40.5052 27.1867 40.5319 27.32C40.6119 27.48 40.6652 27.68 40.6919 27.92C40.7452 28.16 40.7852 28.3733 40.8119 28.56C40.8385 28.6933 40.8385 28.84 40.8119 29C40.8119 29.1333 40.8252 29.2667 40.8519 29.4C40.9052 29.48 40.9452 29.5467 40.9719 29.6C40.9985 29.6533 41.0252 29.7333 41.0519 29.84C41.1585 30.2667 41.2785 30.6933 41.4119 31.12C41.5452 31.52 41.6919 31.92 41.8519 32.32L41.8919 32.36C41.8919 32.68 42.0119 32.8667 42.2519 32.92C42.7319 33.56 43.3452 33.88 44.0919 33.88C44.1985 33.88 44.2919 33.8667 44.3719 33.84C44.4785 33.8133 44.5852 33.7867 44.6919 33.76C44.8519 33.76 44.9852 33.8 45.0919 33.88C45.2252 33.96 45.1852 34.0667 44.9719 34.2C44.5719 34.4667 44.1585 34.6 43.7319 34.6C42.9585 34.6 42.3052 34.4 41.7719 34C41.2652 33.5733 40.8385 33.0533 40.4919 32.44C40.1719 31.8267 39.8919 31.2 39.6519 30.56L39.7719 30.44C39.9852 30.36 40.0919 30.2933 40.0919 30.24C40.0919 30.1867 40.0252 30.1467 39.8919 30.12C39.7852 30.0667 39.6652 30.0533 39.5319 30.08C39.2652 29.6267 39.0652 29.1467 38.9319 28.64C38.8252 28.1067 38.6519 27.6 38.4119 27.12C38.0919 26.4533 37.7319 26.12 37.3319 26.12C37.0652 26.12 36.8119 26.2533 36.5719 26.52C36.3319 26.76 36.0652 27.0267 35.7719 27.32L34.6519 28.56C34.3852 28.64 34.2385 28.8267 34.2119 29.12C33.7319 29.6533 33.2252 30.2133 32.6919 30.8C32.1852 31.36 31.6252 31.8533 31.0119 32.28C30.6119 32.5467 30.1585 32.68 29.6519 32.68C29.4119 32.68 29.1985 32.6267 29.0119 32.52C28.8252 32.4133 28.7319 32.2267 28.7319 31.96C28.7319 31.88 28.7585 31.7333 28.8119 31.52C28.9185 31.1733 29.0652 30.8667 29.2519 30.6C29.4652 30.3333 29.6652 30.0667 29.8519 29.8C30.0652 29.48 30.2785 29.08 30.4919 28.6C30.7319 28.0933 30.9452 27.72 31.1319 27.48C31.2119 27.3467 31.2919 27.2267 31.3719 27.12C31.4785 27.0133 31.5319 26.88 31.5319 26.72L31.8519 25.96C32.0652 25.88 32.1719 25.7733 32.1719 25.64C32.1719 25.5067 32.1852 25.36 32.2119 25.2C32.2385 25.04 32.2919 24.8933 32.3719 24.76C32.4785 24.6 32.5452 24.44 32.5719 24.28C32.6785 23.88 32.8252 23.5067 33.0119 23.16C33.1985 22.7867 33.3052 22.3867 33.3319 21.96V21.92C33.4919 21.3067 33.6252 20.6933 33.7319 20.08C33.8385 19.44 33.8919 18.8133 33.8919 18.2C33.8919 17.64 33.7852 17.1867 33.5719 16.84C33.3852 16.4933 32.9719 16.32 32.3319 16.32C32.1452 16.32 31.9319 16.2933 31.6919 16.24C31.4519 16.1867 31.2252 16.1867 31.0119 16.24C30.9585 16.2133 30.8919 16.2 30.8119 16.2C30.7052 16.2 30.5719 16.28 30.4119 16.44L30.2519 16.48L30.0919 16.44C29.9852 16.44 29.8785 16.4933 29.7719 16.6C29.6919 16.7067 29.5985 16.8 29.4919 16.88H29.4519C28.5452 17.3067 27.6919 17.8267 26.8919 18.44C26.0919 19.0267 25.3052 19.6267 24.5319 20.24C24.5052 20.2667 24.4519 20.3067 24.3719 20.36C24.2919 20.3867 24.2385 20.4267 24.2119 20.48C23.1985 21.3067 22.2119 22.1867 21.2519 23.12C20.3185 24.0533 19.3985 24.9867 18.4919 25.92C18.2785 25.92 18.1452 26.04 18.0919 26.28C17.9585 26.3333 17.8785 26.4133 17.8519 26.52C17.8519 26.6267 17.8252 26.7467 17.7719 26.88C17.6119 27.0667 17.4252 27.2533 17.2119 27.44C16.9985 27.6267 16.8252 27.8267 16.6919 28.04C16.5852 28.2267 16.3852 28.48 16.0919 28.8C15.8252 29.12 15.6119 29.36 15.4519 29.52C15.3452 29.6267 15.2119 29.72 15.0519 29.8C14.9185 29.88 14.8519 30.0267 14.8519 30.24C14.7452 30.4 14.6252 30.5733 14.4919 30.76C14.3585 30.92 14.2252 31.0667 14.0919 31.2C13.8252 31.4933 13.5985 31.8267 13.4119 32.2C13.2519 32.5467 13.0252 32.8533 12.7319 33.12C12.6785 33.2 12.5719 33.2933 12.4119 33.4C12.2785 33.5067 12.1852 33.5867 12.1319 33.64C12.1052 33.6933 12.0919 33.7467 12.0919 33.8C12.1185 33.8267 12.1052 33.8933 12.0519 34C11.8652 34.3467 11.6519 34.6933 11.4119 35.04C11.1985 35.4133 10.9719 35.76 10.7319 36.08C10.5452 36.3467 10.3052 36.5733 10.0119 36.76C9.71854 36.9467 9.45187 37.04 9.21187 37.04Z" fill="white"/>
<path d="M32.1719 26.6396C32.1719 26.773 32.0649 26.88 31.8516 26.96L31.5322 27.7197L31.5215 27.835C31.5015 27.9449 31.452 28.0401 31.3721 28.1201C31.2921 28.2268 31.2118 28.3471 31.1318 28.4805C30.9453 28.7204 30.732 29.0934 30.4922 29.5996C30.2789 30.0796 30.0649 30.4798 29.8516 30.7998C29.665 31.0664 29.4652 31.333 29.252 31.5996C29.0653 31.8662 28.9182 32.173 28.8115 32.5195C28.7582 32.7328 28.7315 32.88 28.7314 32.96C28.7314 33.2265 28.8253 33.4128 29.0117 33.5195C29.1516 33.5995 29.3067 33.6499 29.4766 33.6699L29.6523 33.6797C30.0954 33.6796 30.4979 33.5781 30.8594 33.374L31.0117 33.2803C31.625 32.8536 32.1848 32.3598 32.6914 31.7998C33.2247 31.2132 33.7319 30.6534 34.2119 30.1201C34.2386 29.8268 34.3857 29.6396 34.6523 29.5596L35.7715 28.3203L36.5723 27.5195C36.8121 27.2532 37.0655 27.1201 37.332 27.1201L37.4062 27.124C37.7766 27.163 38.1121 27.495 38.4121 28.1201C38.652 28.5999 38.825 29.1065 38.9316 29.6396C39.065 30.1463 39.2656 30.6267 39.5322 31.0801C39.6654 31.0535 39.7851 31.0669 39.8916 31.1201C40.0249 31.1468 40.0918 31.1869 40.0918 31.2402L40.0869 31.2607C40.0635 31.3103 39.958 31.3705 39.7715 31.4404L39.6523 31.5596C39.8923 32.1996 40.1722 32.8271 40.4922 33.4404C40.8388 34.0535 41.265 34.5735 41.7715 35C42.3047 35.3999 42.9583 35.5995 43.7314 35.5996C44.158 35.5996 44.5718 35.4668 44.9717 35.2002C45.185 35.0669 45.2251 34.9599 45.0918 34.8799C44.9851 34.7999 44.8514 34.7598 44.6914 34.7598C44.5849 34.7864 44.4785 34.8132 44.3721 34.8398C44.2921 34.8665 44.1985 34.8799 44.0918 34.8799V34.3799C44.1583 34.3799 44.1963 34.3711 44.2139 34.3652L44.2324 34.3594L44.251 34.3545C44.3574 34.3279 44.4639 34.302 44.5703 34.2754L44.6299 34.2598H44.6914C44.9209 34.2598 45.1489 34.3161 45.3486 34.4512C45.4261 34.4976 45.5362 34.5813 45.6064 34.7217C45.6863 34.8814 45.6836 35.0519 45.6299 35.1953C45.5829 35.3207 45.5036 35.4107 45.4434 35.4678C45.3795 35.5283 45.3067 35.5791 45.2363 35.623C44.7684 35.9321 44.2644 36.0996 43.7314 36.0996C42.9762 36.0995 42.2978 35.9275 41.7158 35.5664L41.4717 35.4004L41.4502 35.3828C40.9645 34.9738 40.5482 34.488 40.2012 33.9297L40.0566 33.6855L40.0527 33.6787L40.0488 33.6709C39.7196 33.0398 39.4308 32.3946 39.1836 31.7354L39.0703 31.4346L39.126 31.3779L39.1006 31.334C38.8831 30.9643 38.7063 30.5775 38.5703 30.1748L38.4482 29.7676L38.4443 29.7529L38.4414 29.7383C38.3678 29.3704 38.2603 29.0169 38.1182 28.6777L37.9648 28.3438L37.9609 28.3359C37.6524 27.6932 37.4162 27.6202 37.332 27.6201C37.2514 27.6201 37.1228 27.6551 36.9434 27.8545L36.9258 27.874C36.6886 28.1112 36.425 28.3739 36.1357 28.6631L35.0225 29.8955L34.9297 29.999L34.7959 30.0391C34.7684 30.0473 34.7525 30.0558 34.7451 30.0605C34.7386 30.0648 34.7365 30.0679 34.7354 30.0693C34.7338 30.0713 34.7165 30.0933 34.71 30.165L34.6943 30.3311L34.584 30.4541C34.1036 30.9879 33.5951 31.5478 33.0615 32.1348L33.0625 32.1357C32.5308 32.7234 31.9425 33.242 31.2979 33.6904L31.2891 33.6963C30.8026 34.0206 30.2518 34.1796 29.6523 34.1797C29.3357 34.1797 29.0344 34.1088 28.7637 33.9541C28.3819 33.7359 28.2314 33.3556 28.2314 32.96C28.2315 32.8095 28.2754 32.6053 28.3271 32.3984L28.3301 32.3857L28.334 32.373C28.4542 31.9823 28.6221 31.6273 28.8418 31.3135L28.8516 31.2998L28.8613 31.2881C29.0658 31.0325 29.2571 30.7769 29.4355 30.5225C29.6287 30.2328 29.8295 29.8593 30.0352 29.3965L30.04 29.3857C30.2755 28.8887 30.5001 28.4891 30.7129 28.207C30.7972 28.0675 30.8833 27.9382 30.9717 27.8203L30.9932 27.792L31.0186 27.7666C31.0227 27.7625 31.0244 27.7593 31.0254 27.7578C31.0263 27.7565 31.0269 27.755 31.0273 27.7539C31.0281 27.7519 31.0322 27.7422 31.0322 27.7197V27.6191L31.0713 27.5264L31.3906 26.7656L31.4746 26.5674L31.6768 26.4922L31.6777 26.4912C31.6844 26.3707 31.6974 26.2461 31.7188 26.1182C31.7553 25.899 31.8297 25.6924 31.9434 25.5029L31.9492 25.4922L31.9561 25.4824C32.0304 25.3708 32.066 25.2766 32.0791 25.1982L32.083 25.1738L32.0889 25.1514C32.2036 24.721 32.361 24.3152 32.5635 23.9365C32.7181 23.6272 32.8086 23.2955 32.832 22.9375V22.8555L32.8477 22.7939C33.0042 22.1938 33.135 21.5936 33.2393 20.9941C33.3412 20.3811 33.3916 19.7832 33.3916 19.2002C33.3916 18.7616 33.3181 18.436 33.1992 18.1982L33.1465 18.1016L33.1387 18.0898L33.1318 18.0771C33.0848 17.9898 32.9504 17.8586 32.5303 17.8271L32.332 17.8203C32.1576 17.8203 31.9726 17.8017 31.7793 17.7676L31.583 17.7285C31.4099 17.6901 31.2623 17.6922 31.1328 17.7246L30.9541 17.7695L30.8486 17.7168C30.8272 17.7339 30.8 17.7595 30.7656 17.7939L30.668 17.8916L30.5332 17.9248L30.252 17.9951L30.1309 17.9648L30.1211 17.9619C30.0241 18.0806 29.9152 18.1879 29.792 18.2803L29.6582 18.3799H29.5674C28.7297 18.7823 27.9392 19.2673 27.1963 19.8369L27.1875 19.8438L27.1865 19.8428C26.3918 20.4256 25.611 21.0226 24.8428 21.6318L24.8418 21.6299C24.7818 21.6821 24.7121 21.7346 24.6494 21.7764L24.5996 21.8096L24.5283 21.8672C23.5265 22.6844 22.5504 23.5551 21.6006 24.4785C20.6706 25.4085 19.754 26.3386 18.8506 27.2686L18.7031 27.4199H18.5732L18.5225 27.6465L18.333 27.7217C18.3135 27.8394 18.2805 27.9549 18.2363 28.0654L18.2051 28.1426L18.1514 28.2051C17.9737 28.4124 17.7697 28.6163 17.541 28.8164C17.3601 28.9747 17.2205 29.1379 17.1162 29.3047L17.1152 29.3037C16.9786 29.5376 16.7524 29.8197 16.4609 30.1377C16.1978 30.4529 15.9785 30.7012 15.8057 30.874C15.6752 31.0044 15.5219 31.1115 15.3545 31.2031C15.3536 31.2129 15.3516 31.2252 15.3516 31.2402V31.3916L15.2676 31.5176C15.1575 31.6827 15.0342 31.8607 14.8984 32.0508L14.8877 32.0654L14.876 32.0801C14.7395 32.2439 14.6012 32.3958 14.4619 32.5361L14.292 32.7363C14.1287 32.9437 13.9848 33.1729 13.8594 33.4238C13.6754 33.8176 13.4177 34.1647 13.0928 34.4658C12.9893 34.5932 12.8519 34.7041 12.7139 34.7979C12.6691 34.8337 12.6332 34.867 12.6016 34.8936C12.5988 34.9261 12.595 34.9518 12.5918 34.9678C12.5722 35.0655 12.533 35.1556 12.499 35.2236L12.4961 35.2305L12.4922 35.2373C12.2993 35.5954 12.0798 35.9517 11.835 36.3066C11.6181 36.6846 11.3862 37.0375 11.1406 37.3662C10.9137 37.6903 10.6252 37.9621 10.2803 38.1816C9.9408 38.3977 9.5806 38.54 9.21191 38.54C8.80179 38.54 8.44554 38.3641 8.21973 38.0078C8.01836 37.6899 7.95215 37.2765 7.95215 36.8398V36.3203C7.95215 36.1037 7.98821 35.8898 8.05762 35.6816L8.06738 35.6543C8.16296 35.4154 8.34875 35.2088 8.55371 35.0312C8.87366 34.738 9.19372 34.4447 9.51367 34.1514C9.82299 33.8678 10.1198 33.571 10.4033 33.2617L10.4102 33.2539L10.418 33.2461C10.4899 33.1741 10.5913 33.0978 10.7197 33.0547C10.7242 33.0482 10.7306 33.0409 10.7363 33.0322C10.7676 32.9852 10.8076 32.9193 10.8574 32.832C10.9876 32.6043 11.1464 32.4048 11.3398 32.25C11.4593 32.1544 11.5786 32.0698 11.6973 32.002C11.7022 31.9882 11.7116 31.9658 11.7168 31.9297L11.7373 31.7871L11.8301 31.6768C12.1234 31.3301 12.4167 30.9833 12.71 30.6367C12.9946 30.274 13.2667 29.9119 13.5254 29.5498L13.5977 29.4482L13.708 29.3926C13.7575 29.3678 13.9105 29.2305 14.1191 28.7871C14.3396 28.3186 14.5637 27.9363 14.7959 27.6709L14.9453 27.5H14.9561C14.9873 27.3719 15.0286 27.2494 15.085 27.1367L15.0918 27.1221L15.0996 27.1084C15.4692 26.4748 15.8128 25.8549 16.1289 25.249C16.4315 24.6691 16.6711 24.0492 16.8486 23.3896L16.8564 23.3613L16.8672 23.334C16.9277 23.1827 16.9968 23.042 17.0762 22.9229L17.084 22.9111L17.0918 22.9004C17.1231 22.8586 17.1408 22.8231 17.1523 22.7959V22.7197C17.1523 22.7097 17.1504 22.6972 17.1465 22.6816L17.125 22.624L17.0947 22.5635L17.082 22.498C17.0424 22.3001 17.0425 22.1003 17.082 21.9023C17.1037 21.7938 17.128 21.6132 17.1543 21.3506C17.1685 21.1952 17.1873 21.0549 17.2129 20.9355C17.2343 20.8358 17.2703 20.7028 17.3418 20.5859C17.2965 20.5049 17.2795 20.4255 17.2744 20.3691V20.3701L17.2471 20.0996C17.2259 20.0693 17.2081 20.0417 17.1914 20.0195C17.1754 19.9982 17.1622 19.9816 17.1523 19.9697L17.1387 19.9531L17.0547 19.8701L17.0176 19.7578C16.976 19.633 16.9684 19.4943 16.9746 19.3613L16.9561 19.3652L16.7949 19.2686C16.431 19.0502 16.1758 18.9805 16.0117 18.9805C15.814 18.9805 15.63 19.0189 15.4551 19.0967L15.4326 19.1064L15.4102 19.1143C15.1221 19.2103 14.8287 19.2597 14.5322 19.2598C14.3637 19.2598 14.1437 19.2245 13.9629 19.0664C13.8178 18.9394 13.7488 18.7796 13.7236 18.6279L13.7119 18.4805L13.7256 18.3242C13.7868 17.9887 14.0416 17.7707 14.2891 17.6426L14.5059 17.5332C14.7258 17.4322 14.9551 17.3573 15.1934 17.3096C15.4661 17.255 15.7066 17.2198 15.8916 17.2197C16.1903 17.2197 16.4938 17.2543 16.8008 17.3213L17.1094 17.3994C17.5339 17.5207 17.9122 17.7065 18.2354 17.9629C18.7618 18.3654 19.1278 18.8833 19.3213 19.5068C19.5281 20.0681 19.6318 20.6472 19.6318 21.2402L19.624 21.6211C19.6082 22.0016 19.5682 22.3818 19.5049 22.7617L19.5039 22.7666C19.4203 23.2404 19.3088 23.7017 19.1689 24.1494C19.1063 24.3911 19.0164 24.6293 18.8994 24.8633C18.8438 24.9746 18.7917 25.0857 18.7441 25.1963C19.4822 24.4543 20.2125 23.7136 20.9326 22.9717L20.9385 22.9668C21.8538 22.0515 22.7961 21.1757 23.7656 20.3408C23.9868 20.1475 24.2087 19.967 24.4316 19.7998C24.6196 19.6588 24.7952 19.506 24.96 19.3428C25.0479 19.2274 25.1556 19.127 25.2715 19.04C25.3601 18.9736 25.4515 18.9117 25.5342 18.8643L25.9775 18.5557C26.116 18.455 26.2479 18.3548 26.373 18.2549C26.6551 18.0025 26.9519 17.7765 27.2637 17.5781L27.2744 17.5713C27.6781 17.3291 28.082 17.0996 28.4863 16.8838C28.9336 16.6322 29.3837 16.4216 29.8359 16.252L29.9209 16.2197H29.9912C30.0394 16.209 30.0941 16.2002 30.1523 16.2002C30.1744 16.2002 30.1994 16.2018 30.2266 16.2051C30.3578 16.0928 30.5106 16.0301 30.6504 15.9951L30.6592 15.9932L30.667 15.9912C31.0739 15.904 31.4824 15.8604 31.8916 15.8604C32.4026 15.8604 32.8955 15.9276 33.3682 16.0635L33.5703 16.126C34.1333 16.3137 34.6106 16.6303 34.9912 17.0742L35.0449 17.1377L35.0762 17.2139C35.1133 17.3067 35.1444 17.3979 35.1719 17.4854L35.3584 17.5488L35.4521 17.7227C35.6586 18.1061 35.7945 18.5087 35.8594 18.9277C35.9483 19.313 35.9922 19.7109 35.9922 20.1201L35.9844 20.5176C35.9686 20.9126 35.9277 21.3006 35.8643 21.6816C35.8298 21.939 35.7526 22.1991 35.6387 22.46C35.6017 22.5602 35.582 22.6669 35.582 22.7832L35.5889 22.9043L35.6055 23.0518L35.5391 23.1836L35.499 23.2637L35.4785 23.3037L35.4521 23.3398C35.384 23.4307 35.3706 23.4882 35.3721 23.5264L35.377 23.5586L35.4092 23.6885L35.373 23.8174L35.293 24.0977L35.2324 24.3086L35.0723 24.3887V25.2598H34.8887C34.5601 26.2257 34.1811 27.1712 33.7441 28.0938L33.7412 28.0986C33.4505 28.6961 33.1489 29.2882 32.8389 29.876C32.8741 29.8362 32.9098 29.7973 32.9463 29.7598C33.021 29.6574 33.1104 29.5688 33.2129 29.4941C33.2928 29.4173 33.3762 29.3473 33.4639 29.2861C33.536 29.2274 33.5963 29.1531 33.6445 29.0566C33.7392 28.8673 33.8554 28.6959 33.9961 28.5498L34.877 27.5498L35.0254 27.3799H35.2168C35.2872 27.2029 35.3809 27.0378 35.501 26.8877C35.6407 26.6882 35.8977 26.3918 36.2461 26.0186C36.6052 25.6338 36.9064 25.3428 37.1348 25.1738C37.51 24.8399 37.9546 24.6602 38.4521 24.6602C39.1565 24.6603 39.7084 25.0401 40.1201 25.6436L40.2881 25.916L40.2939 25.9258L40.2988 25.9365C40.3712 26.0812 40.4757 26.3706 40.6055 26.7598C40.6822 26.9524 40.7435 27.1142 40.7861 27.2422C40.8083 27.3086 40.8275 27.3717 40.8418 27.4287C40.8477 27.4523 40.8553 27.4841 40.8613 27.5205L40.8721 27.6396L40.8613 27.7773C40.8581 27.7986 40.8522 27.8191 40.8477 27.8398C40.8604 27.854 40.8722 27.8671 40.8818 27.8799C40.95 27.9708 40.9836 28.0736 41.0039 28.1523C41.097 28.3566 41.1528 28.5854 41.1826 28.8291C41.2361 29.0712 41.2784 29.2915 41.3066 29.4893H41.3057C41.3372 29.6637 41.3368 29.8417 41.3125 30.0205C41.3134 30.0866 41.3193 30.1528 41.3291 30.2197C41.3627 30.2739 41.3939 30.3259 41.4189 30.376C41.4446 30.4273 41.4669 30.4839 41.4863 30.542L41.5371 30.7188C41.6406 31.1328 41.7564 31.5474 41.8857 31.9619C42.0058 32.3222 42.1388 32.6822 42.2812 33.043L42.3916 33.1533V33.3604L42.3994 33.4395L42.541 33.4717L42.6523 33.6201C43.0457 34.1444 43.5153 34.3799 44.0918 34.3799V34.8799C43.3452 34.8799 42.7319 34.5599 42.252 33.9199C42.0419 33.8732 41.9237 33.7245 41.8975 33.4736L41.8916 33.3604L41.8516 33.3203C41.7715 33.1203 41.6954 32.9198 41.6221 32.7197L41.4121 32.1201C41.2788 31.6935 41.1584 31.2665 41.0518 30.8398C41.0251 30.7333 40.9983 30.6529 40.9717 30.5996C40.945 30.5464 40.9047 30.4801 40.8516 30.4004C40.8249 30.2671 40.8115 30.1333 40.8115 30C40.8382 29.84 40.8382 29.6929 40.8115 29.5596C40.7849 29.373 40.7447 29.1597 40.6914 28.9199C40.6648 28.6802 40.6121 28.4802 40.5322 28.3203C40.5056 28.1871 40.4654 28.1336 40.4121 28.1602C40.3855 28.1868 40.3453 28.1734 40.292 28.1201C40.272 28.0801 40.2673 28.0326 40.2773 27.9775L40.292 27.9199C40.332 27.8398 40.3572 27.7672 40.3672 27.7021L40.3721 27.6396C40.3718 27.5593 40.2916 27.3193 40.1318 26.9199C39.9985 26.52 39.9049 26.2668 39.8516 26.1602C39.5015 25.5351 39.0698 25.2031 38.5557 25.1641L38.4521 25.1602C38.079 25.1602 37.7454 25.2931 37.4521 25.5596C37.2655 25.6929 36.9856 25.9604 36.6123 26.3604L36.1523 26.8701C36.0323 27.0102 35.945 27.1202 35.8916 27.2002C35.7851 27.3333 35.7056 27.4799 35.6523 27.6396L35.6279 27.6963C35.5638 27.8187 35.4385 27.8799 35.252 27.8799L34.3721 28.8799C34.2654 28.9865 34.1718 29.1203 34.0918 29.2803L34.0273 29.3945C33.9573 29.5048 33.8716 29.5996 33.7715 29.6797C33.6916 29.733 33.6121 29.8 33.5322 29.8799C33.4522 29.9332 33.3854 30.0001 33.332 30.0801C33.1454 30.2667 32.9715 30.4931 32.8115 30.7598C32.6782 30.9998 32.5053 31.2271 32.292 31.4404L32.1123 31.6299C32.0456 31.7033 31.9717 31.7864 31.8916 31.8799C31.7317 32.0398 31.572 32.12 31.4121 32.1201L31.376 32.1152C31.2998 32.0921 31.2853 31.9868 31.332 31.7998C31.372 31.6933 31.4153 31.5869 31.4619 31.4805L31.6123 31.1602C31.719 30.9469 31.7715 30.8265 31.7715 30.7998C32.1715 30.0797 32.5567 29.3523 32.9268 28.6172L33.292 27.8799C33.772 26.8666 34.1856 25.8264 34.5322 24.7598H34.5723V24.3203C34.5723 24.1604 34.6517 24.04 34.8115 23.96L34.8916 23.6797C34.8384 23.4665 34.8919 23.2532 35.0518 23.04L35.0918 22.96C35.0718 22.7799 35.082 22.6074 35.1221 22.4424L35.1719 22.2803C35.2519 22.1003 35.3097 21.9277 35.3447 21.7627L35.3721 21.5996C35.4321 21.2396 35.4694 20.8721 35.4844 20.4971L35.4922 20.1201C35.4922 19.7468 35.4521 19.3867 35.3721 19.04C35.3187 18.6667 35.1984 18.3066 35.0117 17.96C34.8518 17.9066 34.7581 17.8397 34.7314 17.7598C34.7048 17.6533 34.6655 17.5334 34.6123 17.4004C34.3323 17.0737 33.9905 16.8284 33.5879 16.665L33.4121 16.5996C32.9922 16.4596 32.5516 16.3808 32.0908 16.3633L31.8916 16.3604C31.5184 16.3604 31.1447 16.4005 30.7715 16.4805C30.6653 16.5071 30.5855 16.5465 30.5322 16.5996C30.5056 16.6529 30.4519 16.7065 30.3721 16.7598L30.292 16.75C30.2653 16.7433 30.2386 16.7331 30.2119 16.7197C30.1852 16.6932 30.1316 16.6931 30.0518 16.7197H30.0117C29.5851 16.8797 29.1581 17.0803 28.7314 17.3203L28.1318 17.6504C27.932 17.7636 27.7321 17.8801 27.5322 18C27.2389 18.1867 26.9581 18.3996 26.6914 18.6396C26.4248 18.853 26.1315 19.067 25.8115 19.2803C25.7582 19.307 25.6787 19.3606 25.5723 19.4404L25.4316 19.5596C25.3917 19.5995 25.3587 19.6398 25.332 19.6797C25.1454 19.8664 24.9448 20.0402 24.7314 20.2002L24.4121 20.4502C24.3055 20.5368 24.1984 20.6264 24.0918 20.7197C23.1318 21.5464 22.1987 22.4136 21.292 23.3203C20.4121 24.2269 19.5189 25.1335 18.6123 26.04L18.4814 26.1621C18.3615 26.2671 18.2719 26.3203 18.2119 26.3203L18.1748 26.3154C18.1161 26.2989 18.0782 26.2402 18.0615 26.1396L18.0518 26C18.0518 25.8667 18.0651 25.7329 18.0918 25.5996C18.1184 25.4666 18.1453 25.3602 18.1719 25.2803C18.2119 25.1736 18.2551 25.0666 18.3018 24.96L18.4521 24.6396C18.532 24.4799 18.5965 24.3199 18.6465 24.1602L18.6914 24C18.8247 23.5733 18.9317 23.133 19.0117 22.6797C19.0717 22.3197 19.109 21.9596 19.124 21.5996L19.1318 21.2402C19.1318 20.7069 19.0382 20.1864 18.8516 19.6797C18.7115 19.2131 18.4594 18.8178 18.0947 18.4941L17.9316 18.3604C17.665 18.147 17.345 17.9865 16.9717 17.8799C16.5984 17.7733 16.2382 17.7197 15.8916 17.7197C15.7583 17.7198 15.5584 17.7465 15.292 17.7998L15.0947 17.8477C14.8997 17.9026 14.7122 17.9801 14.5322 18.0801L14.3916 18.165C14.2717 18.255 14.2119 18.3605 14.2119 18.4805C14.2121 18.6436 14.2937 18.7355 14.457 18.7559L14.5322 18.7598C14.7122 18.7597 14.8923 18.7374 15.0723 18.6924L15.252 18.6396C15.4918 18.5331 15.7452 18.4805 16.0117 18.4805L16.124 18.4854C16.3924 18.5115 16.7017 18.6298 17.0518 18.8398C17.3451 18.7865 17.4922 18.8667 17.4922 19.0801V19.2002C17.4656 19.3866 17.4656 19.5196 17.4922 19.5996C17.5455 19.6529 17.6249 19.7601 17.7314 19.9199L17.7715 20.3203C17.7717 20.3732 17.8254 20.3599 17.9316 20.2803C18.065 20.1736 18.1452 20.1201 18.1719 20.1201C18.1985 20.1201 18.2119 20.1335 18.2119 20.1602L18.2021 20.2695C18.1955 20.3163 18.1853 20.3735 18.1719 20.4404C18.1718 20.5467 18.1584 20.6264 18.1318 20.6797C18.1052 20.7597 18.0517 20.7731 17.9717 20.7197C17.9184 20.6667 17.8514 20.7067 17.7715 20.8398C17.7182 20.9199 17.679 21.1071 17.6523 21.4004C17.6257 21.6668 17.5989 21.8667 17.5723 22L17.5566 22.0996C17.5466 22.1997 17.5522 22.3003 17.5723 22.4004C17.6254 22.5068 17.6523 22.6133 17.6523 22.7197V22.8799C17.6257 22.9865 17.5722 23.0935 17.4922 23.2002C17.4389 23.2801 17.3853 23.3864 17.332 23.5195C17.1454 24.2129 16.8923 24.8671 16.5723 25.4805L16.0723 26.4102C15.8989 26.7235 15.7189 27.0403 15.5322 27.3604C15.479 27.4669 15.4388 27.6 15.4121 27.7598L15.3818 27.8652C15.3418 27.9551 15.2718 28 15.1719 28C14.9852 28.2133 14.7856 28.5467 14.5723 29L14.4922 29.1621C14.3055 29.5208 14.1183 29.7465 13.9316 29.8398C13.665 30.2132 13.3851 30.5866 13.0918 30.96C12.7985 31.3066 12.5052 31.6533 12.2119 32C12.1852 32.1867 12.1184 32.3204 12.0117 32.4004L11.8418 32.5C11.782 32.5399 11.7188 32.5865 11.6523 32.6396L11.5547 32.7275C11.4596 32.8226 11.372 32.94 11.292 33.0801L11.1523 33.3096C11.1122 33.3698 11.0785 33.4137 11.0518 33.4404L11.002 33.4805C10.982 33.4938 10.9582 33.5062 10.9316 33.5195C10.8784 33.5196 10.8247 33.5464 10.7715 33.5996C10.4782 33.9196 10.1715 34.2262 9.85156 34.5195C9.53156 34.8129 9.2116 35.1071 8.8916 35.4004L8.76465 35.5176C8.64969 35.6325 8.57227 35.7399 8.53223 35.8398C8.47889 35.9998 8.45215 36.1603 8.45215 36.3203V36.8398L8.46387 37.1211C8.51531 37.6901 8.73399 37.9946 9.12012 38.0352L9.21191 38.04C9.4519 38.04 9.7184 37.9464 10.0117 37.7598C10.2318 37.6197 10.422 37.4575 10.582 37.2725L10.7314 37.0801C10.9113 36.8402 11.0841 36.5853 11.249 36.3154L11.4121 36.04C11.6521 35.6934 11.8651 35.3466 12.0518 35C12.1051 34.8933 12.1185 34.8265 12.0918 34.7998C12.0918 34.7465 12.1052 34.6929 12.1318 34.6396C12.1852 34.5863 12.2789 34.5069 12.4121 34.4004C12.532 34.3205 12.6216 34.2476 12.6816 34.1826L12.7314 34.1201C13.0248 33.8535 13.2521 33.5468 13.4121 33.2002C13.5521 32.9202 13.7145 32.6627 13.8994 32.4277L14.0918 32.2002C14.2251 32.0669 14.3589 31.9198 14.4922 31.7598C14.6253 31.5733 14.745 31.4001 14.8516 31.2402C14.8516 31.0269 14.9184 30.8798 15.0518 30.7998C15.1718 30.7398 15.2772 30.6727 15.3672 30.5977L15.4521 30.5195C15.6121 30.3595 15.8253 30.1196 16.0918 29.7998C16.3119 29.5597 16.4797 29.3574 16.5947 29.1924L16.6914 29.04C16.7915 28.8799 16.9144 28.7271 17.0596 28.582L17.2119 28.4404C17.4252 28.2538 17.6115 28.0665 17.7715 27.8799C17.8248 27.7465 17.8516 27.6262 17.8516 27.5195C17.8783 27.4131 17.9587 27.3335 18.0918 27.2803C18.1451 27.0403 18.2789 26.9199 18.4922 26.9199C19.3988 25.9867 20.3187 25.0534 21.252 24.1201C21.9719 23.4201 22.7071 22.7503 23.457 22.1104L24.2119 21.4805C24.2318 21.4406 24.2667 21.4078 24.3164 21.3828L24.3721 21.3604C24.4521 21.307 24.5056 21.2669 24.5322 21.2402C24.9189 20.9336 25.3088 20.6301 25.7021 20.3301L26.8916 19.4404C27.6916 18.8271 28.5455 18.3065 29.4521 17.8799H29.4922L29.6416 17.75C29.6883 17.7033 29.7314 17.653 29.7715 17.5996C29.8781 17.493 29.9852 17.4405 30.0918 17.4404L30.252 17.4805L30.4121 17.4404C30.5719 17.2806 30.7049 17.2004 30.8115 17.2002L30.9219 17.21L31.0117 17.2402C31.2249 17.1869 31.4516 17.187 31.6914 17.2402C31.9314 17.2936 32.1454 17.3203 32.332 17.3203C32.9719 17.3203 33.3856 17.4932 33.5723 17.8398C33.7856 18.1865 33.8916 18.6402 33.8916 19.2002L33.8818 19.6621C33.8618 20.1272 33.8115 20.5999 33.7314 21.0801C33.6248 21.6933 33.492 22.3067 33.332 22.9199V22.96C33.3054 23.3866 33.1984 23.7868 33.0117 24.1602L32.8789 24.4248C32.7539 24.6948 32.6523 24.9803 32.5723 25.2803L32.5439 25.4004C32.509 25.5201 32.4519 25.64 32.3721 25.7598C32.2921 25.8931 32.2386 26.0402 32.2119 26.2002L32.1816 26.4297C32.175 26.503 32.1719 26.573 32.1719 26.6396Z" fill="white"/>
<defs>
<linearGradient id="mhFaviconBg" x1="27" y1="0" x2="27" y2="54" gradientUnits="userSpaceOnUse">
<stop stop-color="#3C5E64"/>
<stop offset="1" stop-color="#2F4A4F"/>
</linearGradient>
</defs>
</svg>
