<svg width="181" height="44" viewBox="0 0 181 44" fill="none" xmlns="http://www.w3.org/2000/svg" role="img" aria-label="모헤어 의원 MO-HAIR">
<title>모헤어 의원 MO-HAIR</title>
<rect width="44" height="44" rx="15" fill="url(#mhWordmarkBg)"/>
<path d="M7.50597 30.1808C7.09313 30.1808 6.88671 29.8548 6.88671 29.203V28.7793C6.88671 28.6489 6.90844 28.5185 6.9519 28.3882C6.99535 28.2795 7.09313 28.16 7.24523 28.0296C7.50597 27.7906 7.76671 27.5516 8.02745 27.3126C8.28819 27.0736 8.53807 26.8237 8.77708 26.563C8.82054 26.5195 8.864 26.4978 8.90745 26.4978C8.95091 26.4761 8.9835 26.4543 9.00523 26.4326C9.04869 26.3891 9.11387 26.2914 9.20079 26.1393C9.2877 25.9872 9.38548 25.8677 9.49412 25.7808C9.60276 25.6938 9.70054 25.6287 9.78745 25.5852C9.87437 25.52 9.92869 25.4114 9.95041 25.2593C10.1894 24.9768 10.4284 24.6943 10.6675 24.4119C10.9065 24.1077 11.1346 23.8035 11.3519 23.4993C11.5257 23.4124 11.6996 23.1842 11.8734 22.8148C12.0472 22.4454 12.2102 22.1738 12.3623 22C12.4709 22 12.5361 21.9348 12.5578 21.8045C12.5796 21.6741 12.6121 21.5654 12.6556 21.4785C12.9598 20.957 13.2423 20.4464 13.503 19.9467C13.7637 19.4469 13.9702 18.9146 14.1223 18.3496C14.1657 18.241 14.2092 18.1541 14.2526 18.0889C14.3178 18.002 14.3613 17.9151 14.383 17.8282V17.6978C14.383 17.6109 14.3613 17.524 14.3178 17.437C14.2961 17.3284 14.2961 17.2198 14.3178 17.1111C14.3396 17.0025 14.3613 16.8395 14.383 16.6222C14.4047 16.3832 14.4373 16.2311 14.4808 16.1659C14.546 16.0573 14.6003 16.0247 14.6437 16.0682C14.7089 16.1116 14.7524 16.1007 14.7741 16.0356C14.7958 15.9921 14.8067 15.9269 14.8067 15.84C14.8284 15.7314 14.8393 15.6553 14.8393 15.6119C14.8393 15.5901 14.8284 15.5793 14.8067 15.5793C14.785 15.5793 14.7198 15.6227 14.6112 15.7096C14.5242 15.7748 14.4808 15.7857 14.4808 15.7422L14.4482 15.4163C14.3613 15.2859 14.2961 15.199 14.2526 15.1556C14.2309 15.0904 14.2309 14.9817 14.2526 14.8296V14.7319C14.2526 14.558 14.1331 14.4928 13.8941 14.5363C13.5682 14.3407 13.2857 14.243 13.0467 14.243C12.8294 14.243 12.623 14.2864 12.4275 14.3733C12.2319 14.4385 12.0363 14.4711 11.8408 14.4711C11.667 14.4711 11.58 14.3951 11.58 14.243C11.58 14.1126 11.667 14.004 11.8408 13.917C12.0363 13.8084 12.2428 13.7324 12.46 13.6889C12.6773 13.6454 12.8403 13.6237 12.9489 13.6237C13.2314 13.6237 13.5247 13.6672 13.8289 13.7541C14.1331 13.841 14.3939 13.9714 14.6112 14.1452C14.9805 14.4277 15.2304 14.7862 15.3608 15.2207C15.5129 15.6336 15.5889 16.0573 15.5889 16.4919C15.5889 16.883 15.5563 17.2741 15.4912 17.6652C15.426 18.0346 15.3391 18.3931 15.2304 18.7408C15.187 18.9146 15.1218 19.0884 15.0349 19.2622C14.9479 19.4361 14.8719 19.6099 14.8067 19.7837C14.785 19.8489 14.7633 19.9358 14.7415 20.0445C14.7198 20.1531 14.7089 20.2617 14.7089 20.3704C14.7089 20.5442 14.7524 20.6311 14.8393 20.6311C14.9045 20.6311 15.0131 20.5551 15.1652 20.403C15.904 19.6642 16.6319 18.9254 17.3489 18.1867C18.0877 17.4479 18.8482 16.7417 19.6304 16.0682C19.8042 15.9161 19.9781 15.7748 20.1519 15.6445C20.3257 15.5141 20.4887 15.3728 20.6408 15.2207C20.6842 15.1556 20.7494 15.0904 20.8363 15.0252C20.9233 14.96 20.9884 14.9166 21.0319 14.8948C21.2926 14.721 21.5316 14.5472 21.7489 14.3733C21.9662 14.1778 22.1944 14.004 22.4334 13.8519C22.7593 13.6563 23.0852 13.4716 23.4112 13.2978C23.7588 13.1022 24.1065 12.9393 24.4541 12.8089H24.4867C24.5519 12.7872 24.5954 12.7872 24.6171 12.8089C24.6605 12.8306 24.704 12.8415 24.7475 12.8415C24.8126 12.798 24.8561 12.7546 24.8778 12.7111C24.9213 12.6677 24.9865 12.6351 25.0734 12.6133C25.3776 12.5482 25.6818 12.5156 25.986 12.5156C26.4205 12.5156 26.8334 12.5807 27.2245 12.7111C27.6156 12.8415 27.9415 13.0588 28.2023 13.363C28.2457 13.4716 28.2783 13.5694 28.3 13.6563C28.3218 13.7215 28.3978 13.7758 28.5282 13.8193C28.6803 14.1017 28.7781 14.3951 28.8215 14.6993C28.8867 14.9817 28.9193 15.2751 28.9193 15.5793C28.9193 15.9921 28.8867 16.3941 28.8215 16.7852C28.7998 16.959 28.7455 17.1437 28.6586 17.3393C28.5934 17.5131 28.5717 17.6978 28.5934 17.8933L28.5608 17.9585C28.4304 18.1324 28.387 18.3062 28.4304 18.48L28.3652 18.7082C28.2349 18.7733 28.1697 18.8711 28.1697 19.0015C28.1697 19.1101 28.1697 19.2296 28.1697 19.36H28.1371C27.8546 20.2291 27.5178 21.0766 27.1267 21.9022C26.7356 22.7062 26.3228 23.4993 25.8882 24.2815C25.8882 24.3032 25.8447 24.401 25.7578 24.5748C25.6709 24.7487 25.5949 24.9225 25.5297 25.0963C25.4862 25.2701 25.5079 25.357 25.5949 25.357C25.7252 25.357 25.8556 25.2919 25.986 25.1615C26.1163 25.0094 26.225 24.8899 26.3119 24.803C26.4857 24.6291 26.627 24.4445 26.7356 24.2489C26.866 24.0316 27.0072 23.8469 27.1593 23.6948C27.2028 23.6296 27.2571 23.5753 27.3223 23.5319C27.3875 23.4667 27.4526 23.4124 27.5178 23.3689C27.6265 23.282 27.7134 23.1733 27.7786 23.043C27.8437 22.9126 27.9198 22.804 28.0067 22.717L28.7237 21.9022C28.8976 21.9022 29.0062 21.837 29.0497 21.7067C29.0931 21.5763 29.1583 21.4568 29.2452 21.3482C29.3321 21.2178 29.5277 20.9896 29.8319 20.6637C30.1361 20.3378 30.3642 20.1205 30.5163 20.0119C30.7554 19.7946 31.027 19.6859 31.3312 19.6859C31.7875 19.6859 32.1677 19.9575 32.4719 20.5008C32.5154 20.5877 32.5914 20.7941 32.7 21.12C32.8304 21.4459 32.8956 21.6415 32.8956 21.7067C32.8956 21.7719 32.8739 21.8479 32.8304 21.9348C32.8087 22 32.8087 22.0543 32.8304 22.0978C32.8739 22.1412 32.9065 22.1521 32.9282 22.1304C32.9716 22.1087 33.0042 22.1521 33.026 22.2608C33.0912 22.3911 33.1346 22.5541 33.1563 22.7496C33.1998 22.9452 33.2324 23.119 33.2541 23.2711C33.2758 23.3798 33.2758 23.4993 33.2541 23.6296C33.2541 23.7383 33.265 23.8469 33.2867 23.9556C33.3302 24.0208 33.3628 24.0751 33.3845 24.1185C33.4062 24.162 33.4279 24.2272 33.4497 24.3141C33.5366 24.6617 33.6344 25.0094 33.743 25.357C33.8517 25.683 33.9712 26.0089 34.1015 26.3348L34.1341 26.3674C34.1341 26.6282 34.2319 26.7803 34.4275 26.8237C34.8186 27.3452 35.3183 27.6059 35.9267 27.6059C36.0136 27.6059 36.0897 27.5951 36.1549 27.5733C36.2418 27.5516 36.3287 27.5299 36.4156 27.5082C36.546 27.5082 36.6546 27.5408 36.7415 27.6059C36.8502 27.6711 36.8176 27.758 36.6437 27.8667C36.3178 28.084 35.981 28.1926 35.6334 28.1926C35.0033 28.1926 34.4709 28.0296 34.0363 27.7037C33.6235 27.3561 33.2758 26.9324 32.9934 26.4326C32.7326 25.9329 32.5045 25.4222 32.3089 24.9008L32.4067 24.803C32.5805 24.7378 32.6675 24.6835 32.6675 24.64C32.6675 24.5966 32.6131 24.564 32.5045 24.5422C32.4176 24.4988 32.3198 24.4879 32.2112 24.5096C31.9939 24.1403 31.8309 23.7491 31.7223 23.3363C31.6354 22.9017 31.4941 22.4889 31.2986 22.0978C31.0378 21.5546 30.7445 21.283 30.4186 21.283C30.2013 21.283 29.9949 21.3916 29.7993 21.6089C29.6037 21.8045 29.3865 22.0217 29.1475 22.2608L28.2349 23.2711C28.0176 23.3363 27.8981 23.4884 27.8763 23.7274C27.4852 24.162 27.0724 24.6183 26.6378 25.0963C26.225 25.5526 25.7687 25.9546 25.2689 26.3022C24.943 26.5195 24.5736 26.6282 24.1608 26.6282C23.9652 26.6282 23.7914 26.5847 23.6393 26.4978C23.4872 26.4109 23.4112 26.2588 23.4112 26.0415C23.4112 25.9763 23.4329 25.8568 23.4763 25.683C23.5633 25.4005 23.6828 25.1506 23.8349 24.9333C24.0087 24.7161 24.1716 24.4988 24.3237 24.2815C24.4976 24.0208 24.6714 23.6948 24.8452 23.3037C25.0408 22.8909 25.2146 22.5867 25.3667 22.3911C25.4319 22.2825 25.4971 22.1847 25.5623 22.0978C25.6492 22.0109 25.6926 21.9022 25.6926 21.7719L25.9534 21.1526C26.1272 21.0874 26.2141 21.0005 26.2141 20.8919C26.2141 20.7832 26.225 20.6637 26.2467 20.5333C26.2684 20.403 26.3119 20.2835 26.3771 20.1748C26.464 20.0445 26.5183 19.9141 26.54 19.7837C26.627 19.4578 26.7465 19.1536 26.8986 18.8711C27.0507 18.5669 27.1376 18.241 27.1593 17.8933V17.8608C27.2897 17.361 27.3983 16.8612 27.4852 16.3615C27.5721 15.84 27.6156 15.3294 27.6156 14.8296C27.6156 14.3733 27.5287 14.004 27.3549 13.7215C27.2028 13.439 26.866 13.2978 26.3445 13.2978C26.1924 13.2978 26.0186 13.2761 25.823 13.2326C25.6275 13.1891 25.4428 13.1891 25.2689 13.2326C25.2255 13.2109 25.1712 13.2 25.106 13.2C25.0191 13.2 24.9104 13.2652 24.78 13.3956L24.6497 13.4282L24.5193 13.3956C24.4324 13.3956 24.3455 13.439 24.2586 13.5259C24.1934 13.6128 24.1173 13.6889 24.0304 13.7541H23.9978C23.2591 14.1017 22.5637 14.5254 21.9119 15.0252C21.26 15.5032 20.6191 15.9921 19.9889 16.4919C19.9672 16.5136 19.9237 16.5462 19.8586 16.5896C19.7934 16.6114 19.7499 16.644 19.7282 16.6874C18.9025 17.361 18.0986 18.078 17.3163 18.8385C16.5558 19.599 15.8062 20.3595 15.0675 21.12C14.8936 21.12 14.785 21.2178 14.7415 21.4133C14.6329 21.4568 14.5677 21.522 14.546 21.6089C14.546 21.6958 14.5242 21.7936 14.4808 21.9022C14.3504 22.0543 14.1983 22.2064 14.0245 22.3585C13.8507 22.5106 13.7094 22.6736 13.6008 22.8474C13.5139 22.9995 13.3509 23.2059 13.1119 23.4667C12.8946 23.7274 12.7208 23.923 12.5904 24.0533C12.5035 24.1403 12.3949 24.2163 12.2645 24.2815C12.1558 24.3467 12.1015 24.4662 12.1015 24.64C12.0146 24.7704 11.9168 24.9116 11.8082 25.0637C11.6996 25.1941 11.5909 25.3136 11.4823 25.4222C11.265 25.6612 11.0803 25.9329 10.9282 26.237C10.7978 26.5195 10.6131 26.7694 10.3741 26.9867C10.3307 27.0519 10.2437 27.1279 10.1134 27.2148C10.0047 27.3017 9.92869 27.3669 9.88523 27.4104C9.8635 27.4538 9.85264 27.4973 9.85264 27.5408C9.87437 27.5625 9.8635 27.6168 9.82004 27.7037C9.66795 27.9862 9.49412 28.2687 9.29856 28.5511C9.12474 28.8553 8.94004 29.1378 8.74449 29.3985C8.59239 29.6158 8.39683 29.8005 8.15782 29.9526C7.91881 30.1047 7.70153 30.1808 7.50597 30.1808Z" fill="white"/>
<path d="M26.2141 21.7064C26.2141 21.8151 26.127 21.9022 25.9531 21.9674L25.6929 22.5865L25.6842 22.6804C25.6679 22.77 25.6276 22.8475 25.5624 22.9127C25.4972 22.9996 25.4319 23.0977 25.3667 23.2063C25.2147 23.4018 25.0409 23.7058 24.8455 24.1182C24.6717 24.5093 24.4973 24.8354 24.3235 25.0962C24.1715 25.3134 24.0087 25.5307 23.8349 25.7479C23.6829 25.9651 23.563 26.2151 23.4761 26.4974C23.4326 26.6712 23.4108 26.7911 23.4108 26.8563C23.4108 27.0735 23.4873 27.2253 23.6392 27.3122C23.7532 27.3774 23.8795 27.4185 24.0179 27.4348L24.1612 27.4427C24.5222 27.4427 24.8501 27.3599 25.1447 27.1937L25.2688 27.1173C25.7685 26.7697 26.2246 26.3672 26.6374 25.911C27.072 25.433 27.4853 24.9769 27.8764 24.5423C27.8981 24.3033 28.018 24.1508 28.2352 24.0856L29.1471 23.0758L29.7996 22.4234C29.9951 22.2063 30.2015 22.0979 30.4187 22.0979L30.4792 22.1011C30.781 22.1329 31.0543 22.4034 31.2988 22.9127C31.4942 23.3037 31.6352 23.7165 31.7221 24.1509C31.8307 24.5637 31.9942 24.9552 32.2114 25.3245C32.3199 25.3029 32.4175 25.3138 32.5043 25.3572C32.6129 25.3789 32.6674 25.4116 32.6674 25.455L32.6634 25.4717C32.6443 25.5121 32.5584 25.5612 32.4064 25.6182L32.3093 25.7152C32.5049 26.2367 32.7329 26.748 32.9936 27.2478C33.276 27.7473 33.6234 28.171 34.036 28.5185C34.4705 28.8444 35.0031 29.0071 35.633 29.0071C35.9806 29.0071 36.3177 28.8989 36.6436 28.6817C36.8174 28.573 36.8501 28.4859 36.7415 28.4207C36.6546 28.3555 36.5455 28.3228 36.4152 28.3228C36.3285 28.3445 36.2418 28.3664 36.155 28.3881C36.0898 28.4098 36.0136 28.4207 35.9267 28.4207V28.0133C35.9808 28.0133 36.0118 28.0061 36.0261 28.0013L36.0412 27.9966L36.0564 27.9926C36.143 27.9709 36.2299 27.9498 36.3166 27.9281L36.3651 27.9154H36.4152C36.6023 27.9154 36.788 27.9613 36.9507 28.0714C37.0139 28.1092 37.1036 28.1773 37.1608 28.2918C37.2258 28.4219 37.2237 28.5608 37.1799 28.6777C37.1416 28.7799 37.077 28.8532 37.0279 28.8997C36.9759 28.949 36.9166 28.9904 36.8592 29.0262C36.4779 29.278 36.0673 29.4145 35.633 29.4145C35.0176 29.4145 34.4648 29.2743 33.9907 28.9801L33.7917 28.8448L33.7742 28.8305C33.3785 28.4972 33.0393 28.1014 32.7565 27.6464L32.6387 27.4475L32.6356 27.4419L32.6324 27.4356C32.3641 26.9213 32.1288 26.3956 31.9274 25.8585L31.8351 25.6134L31.8804 25.5672L31.8597 25.5314C31.6826 25.2302 31.5385 24.9151 31.4277 24.5869L31.3282 24.2551L31.325 24.2432L31.3226 24.2312C31.2627 23.9315 31.175 23.6434 31.0592 23.3671L30.9343 23.0949L30.9311 23.0886C30.6797 22.5649 30.4872 22.5054 30.4187 22.5053C30.353 22.5053 30.2482 22.5338 30.102 22.6963L30.0877 22.7122C29.8944 22.9054 29.6796 23.1195 29.4439 23.3551L28.5368 24.3593L28.4612 24.4437L28.3522 24.4763C28.3298 24.483 28.3168 24.4899 28.3108 24.4938C28.3056 24.4973 28.3038 24.4998 28.3029 24.501C28.3016 24.5026 28.2875 24.5205 28.2822 24.579L28.2695 24.7142L28.1795 24.8145C27.7881 25.2494 27.3738 25.7056 26.939 26.1839L26.9398 26.1847C26.5066 26.6635 26.0272 27.0861 25.502 27.4515L25.4948 27.4563C25.0984 27.7205 24.6496 27.8501 24.1612 27.8501C23.9031 27.8501 23.6577 27.7924 23.4371 27.6663C23.126 27.4886 23.0034 27.1786 23.0034 26.8563C23.0034 26.7337 23.0392 26.5673 23.0814 26.3988L23.0838 26.3884L23.087 26.3781C23.1849 26.0597 23.3218 25.7705 23.5007 25.5147L23.5087 25.5036L23.5166 25.494C23.6833 25.2857 23.8392 25.0775 23.9845 24.8702C24.1419 24.6341 24.3055 24.3298 24.4731 23.9527L24.4771 23.944C24.6689 23.5389 24.8519 23.2134 25.0253 22.9835C25.094 22.8699 25.1641 22.7645 25.2362 22.6684L25.2537 22.6454L25.2744 22.6247C25.2777 22.6213 25.2791 22.6187 25.2799 22.6175C25.2807 22.6164 25.2812 22.6152 25.2815 22.6143C25.2822 22.6127 25.2855 22.6048 25.2855 22.5865V22.5045L25.3173 22.4289L25.5775 21.8091L25.646 21.6475L25.8107 21.5863L25.8115 21.5855C25.8169 21.4873 25.8275 21.3858 25.8449 21.2815C25.8747 21.1029 25.9353 20.9345 26.0279 20.7802L26.0327 20.7714L26.0383 20.7635C26.0989 20.6725 26.1278 20.5958 26.1385 20.5319L26.1417 20.512L26.1465 20.4937C26.24 20.143 26.3682 19.8124 26.5332 19.5039C26.6592 19.2518 26.7329 18.9816 26.752 18.6898V18.623L26.7648 18.5729C26.8923 18.0838 26.9989 17.5948 27.0838 17.1064C27.1669 16.6068 27.208 16.1197 27.208 15.6446C27.208 15.2873 27.1481 15.0219 27.0512 14.8282L27.0082 14.7495L27.0019 14.7399L26.9963 14.7296C26.958 14.6584 26.8485 14.5515 26.5062 14.5259L26.3446 14.5203C26.2025 14.5203 26.0518 14.5051 25.8942 14.4773L25.7343 14.4455C25.5932 14.4142 25.473 14.4159 25.3675 14.4423L25.2219 14.4789L25.1359 14.4359C25.1185 14.4499 25.0963 14.4708 25.0683 14.4988L24.9887 14.5784L24.8789 14.6054L24.6497 14.6627L24.5511 14.6381L24.5431 14.6357C24.464 14.7324 24.3753 14.8198 24.275 14.8951L24.1659 14.9762H24.0919C23.4094 15.3041 22.7653 15.6993 22.1599 16.1634L22.1528 16.169L22.152 16.1682C21.5044 16.6431 20.8682 17.1295 20.2423 17.626L20.2415 17.6244C20.1926 17.6669 20.1358 17.7097 20.0847 17.7437L20.0441 17.7708L19.986 17.8177C19.1698 18.4837 18.3744 19.1931 17.6005 19.9455C16.8427 20.7033 16.0958 21.4611 15.3597 22.2189L15.2396 22.3422H15.1338L15.0924 22.5268L14.938 22.5881C14.9222 22.684 14.8952 22.7781 14.8592 22.8682L14.8338 22.931L14.79 22.9819C14.6452 23.1509 14.479 23.317 14.2927 23.4801C14.1453 23.609 14.0315 23.7421 13.9465 23.8779L13.9457 23.8771C13.8344 24.0677 13.6501 24.2976 13.4126 24.5567C13.1982 24.8135 13.0195 25.0158 12.8787 25.1566C12.7724 25.2629 12.6475 25.3501 12.5111 25.4248C12.5103 25.4327 12.5087 25.4428 12.5087 25.455V25.5784L12.4403 25.681C12.3505 25.8156 12.2501 25.9606 12.1395 26.1155L12.1307 26.1274L12.1212 26.1394C12.0099 26.2728 11.8973 26.3966 11.7838 26.511L11.6453 26.6741C11.5123 26.8431 11.3951 27.0298 11.2928 27.2343C11.1429 27.5551 10.933 27.838 10.6682 28.0833C10.5839 28.1871 10.4719 28.2774 10.3594 28.3538C10.323 28.3831 10.2937 28.4102 10.2679 28.4318C10.2657 28.4583 10.2626 28.4793 10.26 28.4923C10.2441 28.572 10.2121 28.6453 10.1844 28.7008L10.182 28.7063L10.1788 28.7119C10.0217 29.0037 9.84281 29.294 9.6433 29.5832C9.46658 29.8912 9.27769 30.1788 9.07755 30.4466C8.89268 30.7107 8.65759 30.9321 8.37652 31.111C8.09991 31.287 7.80642 31.403 7.50601 31.403C7.17183 31.403 6.88155 31.2597 6.69756 30.9694C6.53348 30.7103 6.47953 30.3735 6.47953 30.0177V29.5944C6.47953 29.4179 6.50892 29.2436 6.56547 29.074L6.57343 29.0517C6.6513 28.857 6.80268 28.6887 6.96969 28.544C7.23039 28.305 7.49118 28.066 7.75188 27.8271C8.00392 27.596 8.24574 27.3542 8.47678 27.1022L8.48235 27.0958L8.48872 27.0894C8.54736 27.0308 8.62997 26.9686 8.73459 26.9335C8.73826 26.9282 8.74343 26.9222 8.74812 26.9152C8.77362 26.8769 8.80616 26.8232 8.84679 26.7521C8.95283 26.5665 9.08225 26.4039 9.23987 26.2778C9.33721 26.1999 9.43444 26.131 9.53111 26.0757C9.5351 26.0645 9.5428 26.0463 9.54702 26.0168L9.56373 25.9006L9.63932 25.8107C9.87831 25.5283 10.1173 25.2457 10.3563 24.9633C10.5882 24.6677 10.8099 24.3727 11.0207 24.0776L11.0796 23.9949L11.1695 23.9495C11.2098 23.9294 11.3345 23.8175 11.5045 23.4562C11.6841 23.0745 11.8667 22.7629 12.0559 22.5467L12.1777 22.4074H12.1864C12.2119 22.3031 12.2456 22.2033 12.2915 22.1114L12.297 22.0995L12.3034 22.0884C12.6046 21.5721 12.8845 21.067 13.1421 20.5733C13.3886 20.1008 13.5838 19.5957 13.7285 19.0583L13.7349 19.0352L13.7436 19.0129C13.793 18.8896 13.8492 18.775 13.9139 18.6779L13.9203 18.6684L13.9267 18.6596C13.9522 18.6256 13.9666 18.5966 13.976 18.5745V18.5124C13.976 18.5042 13.9744 18.4941 13.9712 18.4814L13.9537 18.4344L13.929 18.3851L13.9187 18.3318C13.8864 18.1705 13.8865 18.0077 13.9187 17.8464C13.9364 17.7579 13.9562 17.6108 13.9776 17.3968C13.9892 17.2702 14.0045 17.1559 14.0253 17.0586C14.0427 16.9773 14.0721 16.869 14.1304 16.7738C14.0934 16.7078 14.0796 16.6431 14.0755 16.5971V16.5979L14.0532 16.3775C14.0359 16.3528 14.0214 16.3303 14.0078 16.3122C13.9948 16.2948 13.984 16.2813 13.976 16.2717L13.9648 16.2581L13.8964 16.1905L13.8662 16.099C13.8323 15.9973 13.8261 15.8843 13.8312 15.7759L13.816 15.7791L13.6848 15.7003C13.3882 15.5224 13.1803 15.4656 13.0466 15.4656C12.8855 15.4656 12.7356 15.497 12.593 15.5603L12.5747 15.5682L12.5564 15.5746C12.3217 15.6529 12.0826 15.6931 11.8411 15.6932C11.7038 15.6932 11.5245 15.6645 11.3772 15.5356C11.2589 15.4322 11.2027 15.3019 11.1822 15.1783L11.1727 15.0582L11.1838 14.9309C11.2337 14.6575 11.4413 14.4799 11.6429 14.3755L11.8196 14.2863C11.9988 14.204 12.1856 14.143 12.3798 14.1041C12.602 14.0597 12.798 14.0309 12.9487 14.0309C13.1921 14.0309 13.4394 14.0591 13.6895 14.1137L13.941 14.1773C14.2869 14.2762 14.5952 14.4275 14.8584 14.6365C15.2874 14.9645 15.5856 15.3864 15.7433 15.8945C15.9118 16.3519 15.9963 16.8237 15.9963 17.3069L15.9899 17.6172C15.977 17.9273 15.9444 18.2371 15.8929 18.5466L15.8921 18.5506C15.824 18.9366 15.7331 19.3126 15.6191 19.6773C15.5681 19.8743 15.4948 20.0684 15.3995 20.259C15.3542 20.3497 15.3117 20.4402 15.273 20.5303C15.8744 19.9258 16.4695 19.3222 17.0562 18.7177L17.061 18.7137C17.8068 17.9679 18.5746 17.2543 19.3646 16.574C19.5448 16.4165 19.7256 16.2694 19.9073 16.1332C20.0604 16.0183 20.2035 15.8938 20.3377 15.7608C20.4094 15.6668 20.4972 15.585 20.5916 15.5141C20.6638 15.46 20.7383 15.4096 20.8056 15.3709L21.1669 15.1195C21.2797 15.0374 21.3872 14.9558 21.4892 14.8744C21.7189 14.6687 21.9608 14.4846 22.2148 14.3229L22.2236 14.3174C22.5525 14.12 22.8817 13.9331 23.2111 13.7572C23.5755 13.5522 23.9423 13.3806 24.3108 13.2424L24.38 13.2161H24.4373C24.4765 13.2074 24.5211 13.2002 24.5686 13.2002C24.5866 13.2002 24.607 13.2015 24.6291 13.2042C24.736 13.1127 24.8605 13.0616 24.9744 13.0331L24.9816 13.0315L24.9879 13.0299C25.3195 12.9589 25.6523 12.9233 25.9858 12.9233C26.4021 12.9233 26.8038 12.978 27.1889 13.0888L27.3536 13.1397C27.8124 13.2927 28.2012 13.5507 28.5114 13.9124L28.5551 13.9641L28.5806 14.0261C28.6108 14.1018 28.6362 14.1761 28.6586 14.2474L28.8105 14.2991L28.8869 14.4407C29.0552 14.7531 29.1659 15.0812 29.2188 15.4226C29.2912 15.7365 29.327 16.0608 29.327 16.3942L29.3206 16.7181C29.3077 17.0399 29.2745 17.3561 29.2227 17.6666C29.1947 17.8763 29.1317 18.0882 29.0389 18.3007C29.0088 18.3824 28.9927 18.4693 28.9928 18.5641L28.9983 18.6628L29.0119 18.7829L28.9578 18.8904L28.9251 18.9556L28.9084 18.9882L28.8869 19.0177C28.8314 19.0917 28.8205 19.1385 28.8217 19.1697L28.8257 19.1959L28.8519 19.3018L28.8225 19.4068L28.7572 19.6352L28.7079 19.807L28.5774 19.8723V20.5821H28.4278C28.1601 21.3691 27.8513 22.1395 27.4952 22.8912L27.4928 22.8952C27.256 23.3821 27.0103 23.8645 26.7576 24.3434C26.7863 24.311 26.8154 24.2793 26.8451 24.2487C26.906 24.1653 26.9789 24.0931 27.0624 24.0323C27.1274 23.9696 27.1954 23.9127 27.2669 23.8628C27.3257 23.815 27.3748 23.7544 27.4141 23.6758C27.4912 23.5215 27.5859 23.3819 27.7005 23.2628L28.4183 22.448L28.5392 22.3096H28.6952C28.7525 22.1653 28.8289 22.0308 28.9267 21.9085C29.0406 21.746 29.25 21.5045 29.5339 21.2003C29.8264 20.8869 30.0719 20.6497 30.258 20.512C30.5637 20.24 30.9259 20.0935 31.3314 20.0935C31.9053 20.0936 32.355 20.4031 32.6905 20.8948L32.8273 21.1168L32.8321 21.1247L32.8361 21.1335C32.895 21.2514 32.9802 21.4872 33.0859 21.8043C33.1485 21.9612 33.1984 22.0931 33.2331 22.1974C33.2512 22.2514 33.2669 22.3029 33.2785 22.3493C33.2833 22.3686 33.2895 22.3944 33.2944 22.4241L33.3032 22.5212L33.2944 22.6334C33.2918 22.6507 33.287 22.6675 33.2833 22.6843C33.2936 22.6959 33.3033 22.7065 33.3111 22.717C33.3667 22.7911 33.394 22.8748 33.4106 22.939C33.4864 23.1054 33.5319 23.2919 33.5562 23.4904C33.5998 23.6877 33.6342 23.8672 33.6573 24.0283H33.6565C33.6822 24.1705 33.6819 24.3155 33.662 24.4612C33.6628 24.515 33.6676 24.569 33.6756 24.6235C33.7029 24.6676 33.7283 24.71 33.7488 24.7508C33.7697 24.7927 33.7879 24.8388 33.8037 24.8861L33.8451 25.0301C33.9294 25.3675 34.0237 25.7053 34.1291 26.0431C34.227 26.3366 34.3353 26.63 34.4514 26.9239L34.5413 27.0138V27.1825L34.5477 27.247L34.6631 27.2733L34.7538 27.3942C35.0743 27.8214 35.4569 28.0133 35.9267 28.0133V28.4207C35.3183 28.4207 34.8186 28.1599 34.4275 27.6385C34.2564 27.6005 34.16 27.4793 34.1387 27.2748L34.1339 27.1825L34.1013 27.1499C34.0361 26.9869 33.9741 26.8236 33.9143 26.6605L33.7432 26.172C33.6346 25.8243 33.5365 25.4764 33.4496 25.1288C33.4279 25.0419 33.406 24.9765 33.3843 24.933C33.3626 24.8897 33.3298 24.8357 33.2865 24.7707C33.2647 24.6621 33.2538 24.5531 33.2538 24.4445C33.2756 24.3141 33.2756 24.1942 33.2538 24.0856C33.2321 23.9336 33.1994 23.7598 33.156 23.5644C33.1342 23.3691 33.0913 23.2061 33.0263 23.0758C33.0045 22.9673 32.9718 22.9237 32.9284 22.9453C32.9067 22.9671 32.8739 22.9561 32.8305 22.9127C32.8142 22.8801 32.8104 22.8414 32.8186 22.7965L32.8305 22.7496C32.8631 22.6843 32.8837 22.6252 32.8918 22.5722L32.8958 22.5212C32.8956 22.4558 32.8302 22.2602 32.7 21.9348C32.5914 21.6089 32.5151 21.4026 32.4716 21.3157C32.1864 20.8064 31.8346 20.5359 31.4157 20.5041L31.3314 20.5009C31.0273 20.5009 30.7555 20.6092 30.5166 20.8263C30.3645 20.935 30.1364 21.1529 29.8322 21.4788L29.4575 21.8942C29.3596 22.0083 29.2885 22.0979 29.245 22.1632C29.1583 22.2716 29.0935 22.3911 29.0501 22.5212L29.0302 22.5674C28.9779 22.6671 28.8758 22.717 28.7238 22.717L28.0069 23.5318C27.92 23.6187 27.8437 23.7277 27.7785 23.858L27.726 23.9511C27.6689 24.0409 27.5991 24.1182 27.5175 24.1835C27.4524 24.2269 27.3876 24.2815 27.3226 24.3466C27.2574 24.3901 27.2029 24.4445 27.1594 24.5097C27.0073 24.6618 26.8657 24.8463 26.7353 25.0635C26.6267 25.2591 26.4858 25.4443 26.312 25.6182L26.1656 25.7725C26.1112 25.8323 26.051 25.9001 25.9858 25.9762C25.8555 26.1065 25.7253 26.1719 25.5951 26.172L25.5656 26.168C25.5035 26.1492 25.4917 26.0633 25.5298 25.911C25.5623 25.8242 25.5977 25.7375 25.6356 25.6508L25.7582 25.3898C25.8451 25.216 25.8879 25.1179 25.8879 25.0962C26.2138 24.5094 26.5277 23.9167 26.8292 23.3177L27.1268 22.717C27.5179 21.8913 27.8549 21.0437 28.1374 20.1747H28.17V19.8166C28.17 19.6863 28.2347 19.5881 28.3649 19.523L28.4302 19.2946C28.3869 19.1209 28.4304 18.9471 28.5607 18.7734L28.5933 18.7081C28.577 18.5614 28.5854 18.4209 28.618 18.2864L28.6586 18.1543C28.7237 18.0077 28.7709 17.867 28.7994 17.7326L28.8217 17.5997C28.8706 17.3064 28.901 17.0069 28.9132 16.7013L28.9196 16.3942C28.9196 16.09 28.8869 15.7966 28.8217 15.5141C28.7782 15.2099 28.6802 14.9165 28.5281 14.6341C28.3978 14.5906 28.3214 14.5361 28.2997 14.4709C28.278 14.3842 28.246 14.2865 28.2026 14.1781C27.9744 13.9119 27.6959 13.712 27.3679 13.579L27.2247 13.5256C26.8825 13.4116 26.5235 13.3473 26.1481 13.3331L25.9858 13.3307C25.6816 13.3307 25.3772 13.3634 25.0731 13.4286C24.9865 13.4502 24.9215 13.4824 24.8781 13.5256C24.8564 13.569 24.8127 13.6127 24.7476 13.6561L24.6824 13.6482C24.6606 13.6427 24.6389 13.6344 24.6171 13.6235C24.5954 13.6019 24.5517 13.6018 24.4866 13.6235H24.454C24.1064 13.7539 23.7585 13.9173 23.4108 14.1129L22.9222 14.3818C22.7594 14.4741 22.5965 14.569 22.4337 14.6667C22.1947 14.8188 21.9658 14.9923 21.7486 15.1879C21.5313 15.3617 21.2923 15.5361 21.0316 15.7099C20.9882 15.7317 20.9233 15.7754 20.8367 15.8404L20.7221 15.9375C20.6895 15.97 20.6626 16.0028 20.6409 16.0353C20.4888 16.1874 20.3254 16.3291 20.1515 16.4594L19.8914 16.6632C19.8044 16.7338 19.7173 16.8067 19.6304 16.8828C18.8481 17.5564 18.0878 18.263 17.349 19.0018C16.6321 19.7405 15.9043 20.4792 15.1656 21.2178L15.059 21.3173C14.9612 21.4028 14.8882 21.4462 14.8393 21.4462L14.8091 21.4422C14.7613 21.4288 14.7304 21.3809 14.7168 21.299L14.7088 21.1852C14.7088 21.0766 14.7197 20.9676 14.7415 20.859C14.7632 20.7506 14.785 20.6639 14.8067 20.5988C14.8393 20.5119 14.8745 20.4247 14.9125 20.3378L15.0351 20.0768C15.1002 19.9466 15.1527 19.8163 15.1934 19.6861L15.23 19.5556C15.3387 19.2079 15.4258 18.8492 15.491 18.4798C15.5399 18.1864 15.5703 17.8931 15.5825 17.5997L15.5889 17.3069C15.5889 16.8723 15.5126 16.4482 15.3605 16.0353C15.2464 15.6551 15.041 15.3331 14.7439 15.0693L14.611 14.9603C14.3937 14.7865 14.133 14.6557 13.8288 14.5688C13.5246 14.4819 13.2311 14.4383 12.9487 14.4383C12.8401 14.4384 12.6772 14.4602 12.4601 14.5036L12.2994 14.5426C12.1405 14.5874 11.9878 14.6505 11.8411 14.7319L11.7265 14.8012C11.6288 14.8745 11.5801 14.9605 11.5801 15.0582C11.5802 15.1911 11.6467 15.266 11.7798 15.2826L11.8411 15.2858C11.9878 15.2857 12.1344 15.2676 12.2811 15.2309L12.4275 15.1879C12.623 15.101 12.8294 15.0582 13.0466 15.0582L13.1381 15.0622C13.3568 15.0835 13.6088 15.1799 13.894 15.351C14.133 15.3076 14.2529 15.3729 14.2529 15.5468V15.6446C14.2312 15.7965 14.2312 15.9049 14.2529 15.9701C14.2963 16.0135 14.361 16.1008 14.4478 16.2311L14.4805 16.5573C14.4806 16.6004 14.5244 16.5896 14.611 16.5247C14.7196 16.4378 14.785 16.3942 14.8067 16.3942C14.8284 16.3942 14.8393 16.4051 14.8393 16.4268L14.8314 16.5159C14.8259 16.554 14.8176 16.6007 14.8067 16.6552C14.8067 16.7418 14.7957 16.8067 14.7741 16.8501C14.7524 16.9153 14.7088 16.9262 14.6436 16.8828C14.6002 16.8396 14.5456 16.8722 14.4805 16.9806C14.437 17.0459 14.4051 17.1984 14.3834 17.4374C14.3617 17.6545 14.3399 17.8174 14.3181 17.926L14.3054 18.0071C14.2972 18.0887 14.3018 18.1706 14.3181 18.2522C14.3614 18.3389 14.3834 18.4257 14.3834 18.5124V18.6429C14.3617 18.7298 14.3181 18.817 14.2529 18.9039C14.2095 18.969 14.1658 19.0556 14.1224 19.1641C13.9703 19.729 13.7641 20.2621 13.5033 20.7619L13.0959 21.5194C12.9547 21.7747 12.808 22.0329 12.6559 22.2936C12.6125 22.3805 12.5797 22.4889 12.558 22.6191L12.5333 22.705C12.5007 22.7783 12.4437 22.8148 12.3623 22.8148C12.2102 22.9887 12.0475 23.2603 11.8737 23.6297L11.8085 23.7617C11.6564 24.054 11.5038 24.2379 11.3517 24.314C11.1344 24.6182 10.9064 24.9225 10.6674 25.2267C10.4284 25.5091 10.1895 25.7916 9.95045 26.0741C9.92872 26.2262 9.87424 26.3352 9.78733 26.4003L9.64887 26.4815C9.60011 26.514 9.54867 26.552 9.4945 26.5953L9.41493 26.6669C9.33748 26.7443 9.2661 26.84 9.20088 26.9542L9.0871 27.1412C9.05438 27.1903 9.02693 27.226 9.00514 27.2478L8.96456 27.2804C8.94829 27.2912 8.92893 27.3014 8.90726 27.3122C8.86387 27.3123 8.82016 27.3341 8.77677 27.3775C8.53777 27.6382 8.28792 27.8881 8.0272 28.1271C7.76646 28.3661 7.50575 28.6058 7.24501 28.8448L7.14157 28.9403C7.0479 29.0339 6.98481 29.1214 6.95219 29.2029C6.90873 29.3332 6.88694 29.464 6.88694 29.5944V30.0177L6.89649 30.2468C6.93841 30.7105 7.11659 30.9586 7.43121 30.9916L7.50601 30.9956C7.70155 30.9956 7.9187 30.9193 8.1577 30.7672C8.33699 30.6532 8.49201 30.521 8.6224 30.3702L8.74414 30.2134C8.89072 30.018 9.0315 29.8102 9.16587 29.5904L9.29876 29.366C9.49429 29.0836 9.66787 28.801 9.81995 28.5185C9.86341 28.4316 9.87431 28.3772 9.85258 28.3554C9.8526 28.312 9.8635 28.2683 9.8852 28.2249C9.92867 28.1815 10.0051 28.1168 10.1136 28.03C10.2113 27.9649 10.2843 27.9055 10.3332 27.8525L10.3738 27.8016C10.6128 27.5843 10.798 27.3345 10.9284 27.052C11.0424 26.8239 11.1747 26.6141 11.3255 26.4226L11.4822 26.2372C11.5908 26.1286 11.6998 26.0087 11.8085 25.8784C11.917 25.7265 12.0144 25.5853 12.1013 25.455C12.1013 25.2812 12.1558 25.1614 12.2644 25.0962C12.3622 25.0473 12.4481 24.9926 12.5214 24.9315L12.5906 24.8678C12.721 24.7374 12.8947 24.5419 13.1118 24.2814C13.2912 24.0857 13.4279 23.9209 13.5216 23.7864L13.6004 23.6623C13.682 23.5318 13.7821 23.4073 13.9004 23.2891L14.0245 23.1737C14.1983 23.0216 14.3501 22.869 14.4805 22.717C14.5239 22.6083 14.5457 22.5103 14.5457 22.4234C14.5675 22.3366 14.633 22.2718 14.7415 22.2284C14.7849 22.0328 14.8939 21.9348 15.0677 21.9348C15.8064 21.1743 16.556 20.4139 17.3164 19.6535C17.9031 19.0831 18.5021 18.5373 19.1131 18.0159L19.7282 17.5026C19.7445 17.4702 19.7728 17.4434 19.8134 17.4231L19.8587 17.4048C19.9239 17.3613 19.9675 17.3286 19.9892 17.3069C20.3043 17.057 20.622 16.8097 20.9425 16.5653L21.9117 15.8404C22.5635 15.3406 23.2593 14.9165 23.998 14.5688H24.0307L24.1524 14.463C24.1905 14.4249 24.2256 14.384 24.2582 14.3405C24.3451 14.2536 24.4324 14.2108 24.5192 14.2107L24.6497 14.2434L24.7802 14.2107C24.9105 14.0805 25.0188 14.0151 25.1057 14.015L25.1956 14.023L25.2688 14.0476C25.4425 14.0042 25.6272 14.0042 25.8226 14.0476C26.0182 14.0911 26.1925 14.1129 26.3446 14.1129C26.866 14.1129 27.2031 14.2538 27.3552 14.5362C27.529 14.8187 27.6154 15.1884 27.6154 15.6446L27.6074 16.021C27.5911 16.4 27.5501 16.7852 27.4849 17.1764C27.398 17.6761 27.2898 18.1758 27.1594 18.6755V18.7081C27.1377 19.0558 27.0505 19.3819 26.8984 19.6861L26.7902 19.9017C26.6884 20.1217 26.6056 20.3543 26.5404 20.5988L26.5173 20.6966C26.4888 20.7942 26.4423 20.8919 26.3772 20.9895C26.3121 21.0981 26.2685 21.218 26.2467 21.3483L26.2221 21.5353C26.2166 21.5951 26.2141 21.6521 26.2141 21.7064Z" fill="white"/>
<path d="M53.0959 29V8H56.7559L63.2659 24.08L69.7759 8H73.4359V29H70.7959V12.14L64.7659 27.14H61.9159L55.7359 12.14V29H53.0959ZM86.5508 29.33C84.8708 29.33 83.4308 29.04 82.2308 28.46C81.0308 27.88 80.0408 27.09 79.2608 26.09C78.5008 25.07 77.9408 23.91 77.5808 22.61C77.2208 21.29 77.0408 19.91 77.0408 18.47C77.0408 17.03 77.2208 15.66 77.5808 14.36C77.9408 13.04 78.5008 11.88 79.2608 10.88C80.0408 9.86 81.0308 9.06 82.2308 8.48C83.4308 7.9 84.8708 7.61 86.5508 7.61C88.2308 7.61 89.6708 7.9 90.8708 8.48C92.0708 9.06 93.0508 9.86 93.8108 10.88C94.5908 11.88 95.1608 13.04 95.5208 14.36C95.8808 15.66 96.0608 17.03 96.0608 18.47C96.0608 19.91 95.8808 21.29 95.5208 22.61C95.1608 23.91 94.5908 25.07 93.8108 26.09C93.0508 27.09 92.0708 27.88 90.8708 28.46C89.6708 29.04 88.2308 29.33 86.5508 29.33ZM86.5508 26.93C88.1308 26.93 89.4108 26.55 90.3908 25.79C91.3908 25.03 92.1208 24.01 92.5808 22.73C93.0608 21.43 93.3008 20.01 93.3008 18.47C93.3008 16.91 93.0608 15.49 92.5808 14.21C92.1208 12.93 91.3908 11.91 90.3908 11.15C89.4108 10.39 88.1308 10.01 86.5508 10.01C85.0908 10.01 83.8508 10.39 82.8308 11.15C81.8308 11.91 81.0708 12.93 80.5508 14.21C80.0508 15.49 79.8008 16.91 79.8008 18.47C79.8008 20.01 80.0508 21.43 80.5508 22.73C81.0708 24.01 81.8308 25.03 82.8308 25.79C83.8508 26.55 85.0908 26.93 86.5508 26.93ZM98.915 21.35V18.95H109.355V21.35H98.915ZM113.413 29V8H116.053V16.88H126.073V8H128.713V29H126.073V19.28H116.053V29H113.413ZM131.029 29L138.499 8H141.049L148.519 29H145.999L143.929 23.15H135.619L133.549 29H131.029ZM136.489 20.75H143.059L139.789 11.51L136.489 20.75ZM150.242 29V26.78H153.812V10.28H150.242V8H160.022V10.28H156.452V26.72H160.022V29H150.242ZM164.21 29V8H171.8C173.06 8 174.1 8.19 174.92 8.57C175.76 8.93 176.43 9.41 176.93 10.01C177.43 10.61 177.78 11.27 177.98 11.99C178.2 12.69 178.31 13.38 178.31 14.06C178.31 15.22 177.97 16.34 177.29 17.42C176.61 18.5 175.56 19.3 174.14 19.82L179.48 29H176.36L171.44 20.24H166.91V29H164.21ZM166.85 17.84H171.8C172.9 17.84 173.81 17.48 174.53 16.76C175.25 16.02 175.61 15.12 175.61 14.06C175.61 13.42 175.45 12.83 175.13 12.29C174.81 11.73 174.36 11.28 173.78 10.94C173.22 10.58 172.57 10.4 171.83 10.4H166.85V17.84Z" fill="#3C5E64"/>
<path d="M107.824 37.183H108.552V40.788H107.824V37.183ZM108.356 38.59H109.462V39.199H108.356V38.59ZM104.464 41.11H108.552V43.497H104.464V41.11ZM107.838 41.698H105.185V42.909H107.838V41.698ZM103.848 37.491H104.576V40.081H103.848V37.491ZM103.848 39.773H104.366C104.814 39.773 105.276 39.7543 105.752 39.717C106.233 39.675 106.73 39.605 107.243 39.507L107.327 40.095C106.795 40.207 106.284 40.284 105.794 40.326C105.309 40.3633 104.833 40.382 104.366 40.382H103.848V39.773ZM111.555 37.526H112.164V38.149C112.164 38.569 112.094 38.961 111.954 39.325C111.814 39.6843 111.608 39.9993 111.338 40.27C111.072 40.536 110.745 40.7413 110.358 40.886L109.973 40.291C110.318 40.1743 110.607 40.0087 110.841 39.794C111.074 39.5747 111.251 39.3227 111.373 39.038C111.494 38.7533 111.555 38.457 111.555 38.149V37.526ZM111.702 37.526H112.297V38.114C112.297 38.408 112.353 38.688 112.465 38.954C112.581 39.22 112.752 39.4533 112.976 39.654C113.2 39.8547 113.473 40.0087 113.795 40.116L113.41 40.69C113.046 40.5593 112.735 40.368 112.479 40.116C112.222 39.864 112.028 39.5677 111.898 39.227C111.767 38.8863 111.702 38.5153 111.702 38.114V37.526ZM114.565 37.183H115.3V40.949H114.565V37.183ZM113.172 41.124C113.839 41.124 114.364 41.2313 114.747 41.446C115.134 41.6607 115.328 41.9617 115.328 42.349C115.328 42.7363 115.134 43.035 114.747 43.245C114.364 43.4597 113.839 43.567 113.172 43.567C112.504 43.567 111.977 43.4597 111.59 43.245C111.202 43.035 111.009 42.7363 111.009 42.349C111.009 41.9617 111.202 41.6607 111.59 41.446C111.977 41.2313 112.504 41.124 113.172 41.124ZM113.172 41.698C112.868 41.698 112.609 41.7237 112.395 41.775C112.185 41.8217 112.024 41.894 111.912 41.992C111.8 42.09 111.744 42.209 111.744 42.349C111.744 42.4843 111.8 42.601 111.912 42.699C112.024 42.797 112.185 42.8717 112.395 42.923C112.609 42.9743 112.868 43 113.172 43C113.475 43 113.732 42.9743 113.942 42.923C114.152 42.8717 114.313 42.797 114.425 42.699C114.541 42.601 114.6 42.4843 114.6 42.349C114.6 42.209 114.541 42.09 114.425 41.992C114.313 41.894 114.152 41.8217 113.942 41.775C113.732 41.7237 113.475 41.698 113.172 41.698ZM113.277 38.45H114.698V39.052H113.277V38.45ZM120.045 38.66H121.291V39.248H120.045V38.66ZM120.031 39.92H121.277V40.508H120.031V39.92ZM116.454 37.827H120.003V38.408H116.454V37.827ZM118.253 38.688C118.547 38.688 118.804 38.7393 119.023 38.842C119.242 38.94 119.415 39.0777 119.541 39.255C119.667 39.4323 119.73 39.64 119.73 39.878C119.73 40.116 119.667 40.326 119.541 40.508C119.415 40.6853 119.242 40.8253 119.023 40.928C118.804 41.026 118.547 41.075 118.253 41.075C117.968 41.075 117.714 41.026 117.49 40.928C117.271 40.8253 117.098 40.6853 116.972 40.508C116.846 40.326 116.783 40.116 116.783 39.878C116.783 39.64 116.846 39.4323 116.972 39.255C117.098 39.0777 117.271 38.94 117.49 38.842C117.714 38.7393 117.968 38.688 118.253 38.688ZM118.253 39.248C118.02 39.248 117.831 39.304 117.686 39.416C117.546 39.528 117.476 39.6843 117.476 39.885C117.476 40.081 117.546 40.2373 117.686 40.354C117.831 40.466 118.02 40.522 118.253 40.522C118.491 40.522 118.682 40.466 118.827 40.354C118.972 40.2373 119.044 40.081 119.044 39.885C119.044 39.6843 118.972 39.528 118.827 39.416C118.682 39.304 118.491 39.248 118.253 39.248ZM117.896 37.127H118.631V38.233H117.896V37.127ZM121.004 37.176H121.739V41.285H121.004V37.176ZM119.618 41.362C120.061 41.362 120.444 41.4063 120.766 41.495C121.088 41.579 121.335 41.705 121.508 41.873C121.685 42.0363 121.774 42.2347 121.774 42.468C121.774 42.6967 121.685 42.8927 121.508 43.056C121.335 43.224 121.088 43.35 120.766 43.434C120.444 43.5227 120.061 43.567 119.618 43.567C119.17 43.567 118.785 43.5227 118.463 43.434C118.141 43.35 117.891 43.224 117.714 43.056C117.541 42.8927 117.455 42.6967 117.455 42.468C117.455 42.2347 117.541 42.0363 117.714 41.873C117.891 41.705 118.141 41.579 118.463 41.495C118.785 41.4063 119.17 41.362 119.618 41.362ZM119.618 41.929C119.179 41.929 118.836 41.9733 118.589 42.062C118.346 42.1507 118.225 42.286 118.225 42.468C118.225 42.6407 118.346 42.7737 118.589 42.867C118.836 42.9603 119.179 43.007 119.618 43.007C120.052 43.007 120.39 42.9603 120.633 42.867C120.88 42.7737 121.004 42.6407 121.004 42.468C121.004 42.286 120.88 42.1507 120.633 42.062C120.39 41.9733 120.052 41.929 119.618 41.929ZM124.998 39.745H125.502C125.936 39.745 126.314 39.7427 126.636 39.738C126.958 39.7287 127.254 39.7147 127.525 39.696C127.8 39.6727 128.08 39.6377 128.365 39.591L128.435 40.165C128.146 40.2117 127.859 40.2467 127.574 40.27C127.294 40.2933 126.988 40.3097 126.657 40.319C126.326 40.3237 125.941 40.326 125.502 40.326H124.998V39.745ZM124.998 37.47H127.952V38.044H125.726V40.095H124.998V37.47ZM125.495 38.604H127.833V39.157H125.495V38.604ZM128.995 37.183H129.723V40.494H128.995V37.183ZM129.422 38.506H130.626V39.108H129.422V38.506ZM125.593 40.788H129.723V42.384H126.328V43.245H125.607V41.852H129.002V41.348H125.593V40.788ZM125.607 42.951H129.933V43.518H125.607V42.951ZM131.172 42.188H136.968V42.79H131.172V42.188ZM133.692 40.641H134.427V42.342H133.692V40.641ZM131.816 37.687H136.296V40.753H131.816V37.687ZM135.575 38.268H132.537V40.172H135.575V38.268ZM138.278 41.2674C138.143 41.2674 138.026 41.2193 137.928 41.1232C137.83 41.0254 137.781 40.9078 137.781 40.7702C137.781 40.6344 137.83 40.5183 137.928 40.4222C138.026 40.3245 138.143 40.2756 138.278 40.2756C138.414 40.2756 138.531 40.3245 138.629 40.4222C138.727 40.5183 138.776 40.6344 138.776 40.7702C138.776 40.8614 138.752 40.9451 138.706 41.0213C138.661 41.0959 138.602 41.1555 138.527 41.2003C138.452 41.245 138.37 41.2674 138.278 41.2674ZM139.593 42.188H145.389V42.79H139.593V42.188ZM142.113 40.641H142.848V42.342H142.113V40.641ZM140.237 37.687H144.717V40.753H140.237V37.687ZM143.996 38.268H140.958V40.172H143.996V38.268ZM146.257 37.449H146.985V38.296H148.546V37.449H149.274V40.242H146.257V37.449ZM146.985 38.856V39.668H148.546V38.856H146.985ZM150.296 37.183H151.024V40.459H150.296V37.183ZM150.723 38.492H151.927V39.094H150.723V38.492ZM146.894 40.739H151.024V42.377H147.629V43.245H146.908V41.838H150.303V41.306H146.894V40.739ZM146.908 42.944H151.234V43.518H146.908V42.944ZM157.001 37.176H157.736V43.588H157.001V37.176ZM154.334 37.645C154.652 37.645 154.934 37.7383 155.181 37.925C155.433 38.1117 155.629 38.373 155.769 38.709C155.909 39.045 155.979 39.4417 155.979 39.899C155.979 40.361 155.909 40.7623 155.769 41.103C155.629 41.439 155.433 41.7003 155.181 41.887C154.934 42.069 154.652 42.16 154.334 42.16C154.017 42.16 153.732 42.069 153.48 41.887C153.233 41.7003 153.037 41.439 152.892 41.103C152.752 40.7623 152.682 40.361 152.682 39.899C152.682 39.4417 152.752 39.045 152.892 38.709C153.037 38.373 153.233 38.1117 153.48 37.925C153.732 37.7383 154.017 37.645 154.334 37.645ZM154.334 38.31C154.148 38.31 153.982 38.373 153.837 38.499C153.697 38.625 153.588 38.807 153.508 39.045C153.429 39.283 153.389 39.5677 153.389 39.899C153.389 40.235 153.429 40.522 153.508 40.76C153.588 40.998 153.697 41.1823 153.837 41.313C153.982 41.439 154.148 41.502 154.334 41.502C154.521 41.502 154.684 41.439 154.824 41.313C154.964 41.1823 155.074 40.998 155.153 40.76C155.233 40.522 155.272 40.235 155.272 39.899C155.272 39.5677 155.233 39.283 155.153 39.045C155.074 38.807 154.964 38.625 154.824 38.499C154.684 38.373 154.521 38.31 154.334 38.31ZM160.501 37.477H161.11V38.093C161.11 38.499 161.038 38.8817 160.893 39.241C160.753 39.5957 160.548 39.9083 160.277 40.179C160.006 40.445 159.68 40.6457 159.297 40.781L158.933 40.193C159.185 40.109 159.407 39.9947 159.598 39.85C159.794 39.7053 159.96 39.5397 160.095 39.353C160.23 39.1617 160.331 38.961 160.396 38.751C160.466 38.5363 160.501 38.317 160.501 38.093V37.477ZM160.648 37.477H161.243V38.093C161.243 38.3123 161.278 38.5247 161.348 38.73C161.418 38.9307 161.518 39.1197 161.649 39.297C161.78 39.4697 161.941 39.626 162.132 39.766C162.328 39.9013 162.55 40.0087 162.797 40.088L162.433 40.662C162.055 40.5313 161.733 40.34 161.467 40.088C161.201 39.836 160.998 39.5397 160.858 39.199C160.718 38.8537 160.648 38.485 160.648 38.093V37.477ZM159.878 41.32H164.183V43.581H163.448V41.908H159.878V41.32ZM163.448 37.183H164.183V41.012H163.448V37.183ZM170.613 38.898H172.167V39.493H170.613V38.898ZM171.768 37.183H172.503V41.859H171.768V37.183ZM168.359 42.853H172.671V43.448H168.359V42.853ZM168.359 41.453H169.094V43.182H168.359V41.453ZM168.765 37.995H169.367V38.464C169.367 38.856 169.295 39.2293 169.15 39.584C169.01 39.934 168.807 40.2397 168.541 40.501C168.275 40.7623 167.953 40.9607 167.575 41.096L167.197 40.515C167.449 40.4263 167.671 40.312 167.862 40.172C168.058 40.032 168.224 39.871 168.359 39.689C168.494 39.507 168.595 39.311 168.66 39.101C168.73 38.891 168.765 38.6787 168.765 38.464V37.995ZM168.912 37.995H169.507V38.457C169.507 38.723 169.565 38.982 169.682 39.234C169.799 39.486 169.969 39.7123 170.193 39.913C170.417 40.1137 170.69 40.27 171.012 40.382L170.648 40.956C170.279 40.8253 169.964 40.6363 169.703 40.389C169.446 40.137 169.25 39.8453 169.115 39.514C168.98 39.178 168.912 38.8257 168.912 38.457V37.995ZM167.414 37.666H170.837V38.254H167.414V37.666ZM173.636 40.403H179.432V40.991H173.636V40.403ZM176.226 40.767H176.961V42.188H176.226V40.767ZM174.371 37.463H178.69V39.773H174.371V37.463ZM177.962 38.044H175.085V39.192H177.962V38.044ZM174.343 42.853H178.788V43.448H174.343V42.853ZM174.343 41.607H175.078V43.056H174.343V41.607Z" fill="#5C6568"/>
<defs>
<linearGradient id="mhWordmarkBg" x1="22" y1="0" x2="22" y2="44" gradientUnits="userSpaceOnUse">
<stop stop-color="#3C5E64"/>
<stop offset="1" stop-color="#2F4A4F"/>
</linearGradient>
</defs>
</svg>
